<svg width="551" height="358" viewBox="0 0 551 358" fill="none" xmlns="http://www.w3.org/2000/svg">
<path opacity="0.5" d="M462.33 186L505.51 161.06C506.25 160.63 506.15 159.89 505.3 159.39L462.51 134.7C462.074 134.453 461.585 134.313 461.084 134.293C460.584 134.272 460.085 134.37 459.63 134.58L416.43 159.52C415.69 159.94 415.78 160.69 416.64 161.18L459.42 185.88C459.862 186.127 460.355 186.266 460.861 186.287C461.366 186.307 461.869 186.209 462.33 186Z" fill="#242993"/>
<path d="M461.11 198.79C461.83 198.808 462.542 198.643 463.18 198.31L526.37 161.82C526.653 161.69 526.896 161.486 527.072 161.229C527.248 160.971 527.351 160.671 527.37 160.36C527.335 159.976 527.198 159.609 526.975 159.294C526.752 158.98 526.45 158.73 526.1 158.57L463.51 122.44C462.797 122.043 462.001 121.821 461.185 121.791C460.37 121.761 459.56 121.926 458.82 122.27L395.63 158.75C395.345 158.88 395.1 159.086 394.924 159.345C394.748 159.604 394.646 159.907 394.63 160.22C394.666 160.602 394.803 160.968 395.026 161.281C395.249 161.593 395.55 161.841 395.9 162L458.51 198.13C459.306 198.568 460.201 198.795 461.11 198.79ZM462.71 197.49C462.115 197.751 461.469 197.871 460.82 197.841C460.172 197.812 459.539 197.633 458.97 197.32L396.39 161.18C395.89 160.9 395.59 160.53 395.59 160.18C395.609 160.039 395.664 159.905 395.75 159.791C395.836 159.677 395.949 159.587 396.08 159.53L459.27 123.08C459.867 122.819 460.516 122.7 461.166 122.731C461.817 122.762 462.451 122.943 463.02 123.26L525.6 159.39C526.1 159.68 526.4 160.04 526.4 160.39C526.379 160.532 526.322 160.666 526.235 160.78C526.147 160.894 526.032 160.983 525.9 161.04L462.71 197.49Z" fill="#42FFFF"/>
<path d="M415.97 142.62V134.29H429.51L459.66 116.91C460.11 116.704 460.601 116.605 461.096 116.62C461.59 116.636 462.074 116.766 462.51 117L492.51 134.34H506.03V142.69C506.019 142.837 505.968 142.979 505.884 143.1C505.799 143.222 505.684 143.318 505.55 143.38L462.35 168.32C461.895 168.53 461.396 168.628 460.896 168.608C460.395 168.587 459.906 168.447 459.47 168.2L416.69 143.5C416.506 143.425 416.344 143.305 416.218 143.152C416.092 142.998 416.007 142.815 415.97 142.62Z" fill="url(#paint0_linear_1_431)"/>
<path d="M462.33 160L505.51 135.06C506.25 134.63 506.15 133.89 505.3 133.4L462.51 108.7C462.074 108.453 461.585 108.313 461.084 108.293C460.584 108.272 460.085 108.37 459.63 108.58L416.43 133.52C415.69 133.94 415.78 134.69 416.64 135.18L459.42 159.88C459.861 160.129 460.355 160.269 460.861 160.29C461.366 160.311 461.87 160.212 462.33 160Z" fill="url(#paint1_linear_1_431)"/>
<path d="M462.18 157.08L500.51 135C501.16 134.62 501.08 134 500.32 133.53L462.4 111.63C462.012 111.416 461.58 111.295 461.137 111.277C460.694 111.26 460.253 111.347 459.85 111.53L421.51 133.6C420.85 133.98 420.94 134.6 421.69 135.08L459.62 157C460.01 157.214 460.446 157.332 460.89 157.346C461.335 157.36 461.777 157.269 462.18 157.08Z" fill="#242993"/>
<path d="M462.08 155.23L497.26 134.92C497.86 134.57 497.79 133.92 497.09 133.56L462.25 113.45C461.893 113.251 461.495 113.138 461.087 113.12C460.679 113.103 460.272 113.182 459.9 113.35L424.73 133.66C424.13 134.01 424.2 134.66 424.9 135.01L459.73 155.13C460.087 155.327 460.486 155.439 460.893 155.456C461.301 155.474 461.707 155.396 462.08 155.23Z" fill="#4553C7"/>
<path d="M461.8 132.97L465.92 130.59L463.67 129.29L459.56 131.67L461.8 132.97Z" fill="#42FFFF"/>
<path d="M454.16 132.63L458.27 135L460.52 133.71L456.4 131.33L454.16 132.63Z" fill="#42FFFF"/>
<path d="M462.74 133.5L464.98 134.8L467.23 133.5L464.98 132.21L462.74 133.5Z" fill="#42FFFF"/>
<path d="M454.97 137.99L457.22 139.28L463.7 135.54L461.45 134.25L454.97 137.99Z" fill="#42FFFF"/>
<path opacity="0.5" d="M68.29 234.31L111.51 209.38C112.25 208.95 112.15 208.2 111.3 207.71L68.51 183C68.072 182.758 67.5839 182.622 67.0841 182.601C66.5843 182.58 66.0865 182.676 65.63 182.88L22.43 207.82C21.69 208.25 21.79 208.99 22.64 209.49L65.41 234.19C65.8461 234.437 66.3348 234.577 66.8355 234.598C67.3363 234.618 67.8348 234.52 68.29 234.31Z" fill="#242993"/>
<path d="M67.07 245.52C67.7659 245.537 68.4545 245.375 69.07 245.05L129.62 210.05C129.89 209.921 130.119 209.72 130.283 209.47C130.447 209.219 130.539 208.929 130.55 208.63C130.517 208.26 130.387 207.905 130.173 207.601C129.958 207.297 129.668 207.055 129.33 206.9L69.33 172.29C68.6458 171.905 67.8798 171.689 67.0955 171.66C66.3112 171.63 65.5312 171.788 64.82 172.12L4.26999 207.12C4.00076 207.253 3.77227 207.456 3.60861 207.707C3.44495 207.959 3.35218 208.25 3.34 208.55C3.37463 208.919 3.50555 209.271 3.7197 209.573C3.93384 209.875 4.22362 210.116 4.55997 210.27L64.56 244.89C65.33 245.309 66.1935 245.525 67.07 245.52ZM66.83 172.63C67.5483 172.627 68.2563 172.802 68.89 173.14L128.89 207.76C129.36 208.03 129.64 208.37 129.64 208.67C129.621 208.802 129.569 208.928 129.489 209.034C129.408 209.141 129.302 209.226 129.18 209.28L68.63 244.23C68.0625 244.48 67.4445 244.595 66.825 244.566C66.2054 244.536 65.6011 244.363 65.06 244.06L5.05997 209.45C4.58997 209.17 4.30997 208.83 4.30997 208.53C4.33038 208.4 4.38317 208.276 4.46353 208.171C4.54389 208.067 4.64927 207.984 4.76999 207.93L65.32 172.93C65.7911 172.708 66.3097 172.605 66.83 172.63Z" fill="#42FFFF"/>
<path d="M21.93 192.06V183.72H35.51L65.63 166.34C66.0851 166.13 66.5837 166.032 67.0845 166.053C67.5852 166.073 68.0738 166.213 68.51 166.46L98.51 183.77H111.99V192.13C111.973 192.277 111.919 192.417 111.833 192.538C111.748 192.658 111.633 192.755 111.5 192.82L68.3 217.76C67.8434 217.964 67.3456 218.06 66.8459 218.039C66.3461 218.018 65.858 217.882 65.42 217.64L22.63 193C22.4443 192.914 22.283 192.783 22.1608 192.619C22.0386 192.455 21.9592 192.263 21.93 192.06Z" fill="url(#paint2_linear_1_431)"/>
<path d="M68.29 209.44L111.51 184.5C112.25 184.07 112.15 183.32 111.3 182.83L68.51 158.13C68.072 157.888 67.5839 157.752 67.0841 157.731C66.5843 157.71 66.0865 157.806 65.63 158.01L22.42 183C21.68 183.43 21.78 184.17 22.63 184.67L65.41 209.37C65.8519 209.604 66.342 209.732 66.8417 209.744C67.3415 209.756 67.8373 209.652 68.29 209.44Z" fill="url(#paint3_linear_1_431)"/>
<path d="M68.29 209.44L111.51 184.5C112.25 184.07 112.15 183.32 111.3 182.83L68.51 158.13C68.072 157.888 67.5839 157.752 67.0841 157.731C66.5843 157.71 66.0865 157.806 65.63 158.01L22.42 183C21.68 183.43 21.78 184.17 22.63 184.67L65.41 209.37C65.8519 209.604 66.342 209.732 66.8417 209.744C67.3415 209.756 67.8373 209.652 68.29 209.44Z" fill="url(#paint4_linear_1_431)"/>
<path d="M68.14 206.51L106.43 184.41C107.08 184.03 107 183.41 106.25 182.93L68.33 161C67.941 160.785 67.5072 160.663 67.0629 160.644C66.6187 160.624 66.1761 160.709 65.77 160.89L27.51 183C26.86 183.38 26.94 184 27.69 184.47L65.62 206.37C66 206.588 66.4258 206.715 66.8634 206.739C67.3009 206.763 67.7381 206.685 68.14 206.51Z" fill="#242993"/>
<path d="M68.04 204.66L103.22 184.35C103.82 184.01 103.75 183.4 103.05 183L68.21 162.88C67.8545 162.682 67.4573 162.571 67.0507 162.556C66.6442 162.54 66.2397 162.62 65.87 162.79L30.69 183.1C30.09 183.44 30.16 184.1 30.86 184.45L65.7 204.57C66.0556 204.768 66.4527 204.879 66.8592 204.895C67.2658 204.91 67.6703 204.83 68.04 204.66Z" fill="#4553C7"/>
<path d="M67.76 182.4L71.88 180.03L69.63 178.73L65.52 181.1L67.76 182.4Z" fill="#42FFFF"/>
<path d="M60.12 182.06L64.23 184.44L66.48 183.14L62.37 180.77L60.12 182.06Z" fill="#42FFFF"/>
<path d="M68.7 182.94L70.94 184.24L73.19 182.94L70.94 181.64L68.7 182.94Z" fill="#42FFFF"/>
<path d="M60.94 187.42L63.18 188.72L69.66 184.98L67.41 183.68L60.94 187.42Z" fill="#42FFFF"/>
<path opacity="0.4" d="M21.92 172.52L40.3 172.63L65.62 158C66.0765 157.796 66.5743 157.7 67.0741 157.721C67.5739 157.742 68.062 157.878 68.5 158.12L94.17 173L111.98 173.11V183.93C111.951 184.061 111.892 184.184 111.809 184.289C111.726 184.395 111.62 184.481 111.5 184.54L68.3 209.48C67.8434 209.684 67.3456 209.78 66.8459 209.759C66.3461 209.738 65.858 209.602 65.42 209.36L22.64 184.66C22.3194 184.5 22.075 184.219 21.96 183.88L21.92 172.52Z" fill="#42FFFF"/>
<path d="M21.93 173.59V165.26H35.51L65.63 147.87C66.0873 147.667 66.5855 147.573 67.0853 147.596C67.5851 147.618 68.0728 147.757 68.51 148L98.51 165.31H111.99V173.66C111.973 173.808 111.919 173.95 111.833 174.072C111.748 174.194 111.633 174.293 111.5 174.36L68.3 199.3C67.8434 199.504 67.3456 199.6 66.8459 199.579C66.3461 199.558 65.858 199.422 65.42 199.18L22.64 174.48C22.4587 174.4 22.2994 174.277 22.1758 174.122C22.0522 173.967 21.9678 173.785 21.93 173.59Z" fill="url(#paint5_linear_1_431)"/>
<path d="M68.29 191L111.51 166C112.25 165.58 112.15 164.83 111.3 164.34L68.51 139.67C68.0728 139.426 67.5845 139.288 67.0843 139.267C66.5841 139.247 66.086 139.343 65.63 139.55L22.43 164.49C21.69 164.92 21.79 165.66 22.64 166.15L65.42 190.85C65.8535 191.097 66.3389 191.239 66.8372 191.265C67.3355 191.291 67.833 191.201 68.29 191Z" fill="url(#paint6_linear_1_431)"/>
<path d="M68.14 188.05L106.43 165.94C107.08 165.57 107 164.94 106.25 164.47L68.33 142.58C67.9417 142.362 67.5078 142.239 67.0631 142.22C66.6184 142.201 66.1755 142.286 65.77 142.47L27.51 164.58C26.86 164.95 26.94 165.58 27.69 166.05L65.59 188C65.9817 188.207 66.4163 188.319 66.859 188.327C67.3018 188.336 67.7405 188.241 68.14 188.05Z" fill="#242993"/>
<path d="M68.04 186.2L103.22 165.89C103.82 165.54 103.75 164.94 103.05 164.53L68.21 144.42C67.8552 144.221 67.4585 144.108 67.052 144.09C66.6454 144.073 66.2405 144.152 65.87 144.32L30.69 164.63C30.09 164.98 30.16 165.63 30.86 165.99L65.7 186.1C66.0548 186.299 66.4515 186.412 66.8581 186.43C67.2646 186.447 67.6695 186.368 68.04 186.2Z" fill="#4553C7"/>
<path d="M67.76 163.94L71.88 161.56L69.63 160.27L65.52 162.64L67.76 163.94Z" fill="#42FFFF"/>
<path d="M60.12 163.6L64.23 165.98L66.48 164.68L62.37 162.31L60.12 163.6Z" fill="#42FFFF"/>
<path d="M68.7 164.48L70.94 165.77L73.19 164.48L70.94 163.18L68.7 164.48Z" fill="#42FFFF"/>
<path d="M60.94 168.96L63.18 170.25L69.66 166.52L67.41 165.22L60.94 168.96Z" fill="#42FFFF"/>
<path d="M332.98 140.58L309.73 2.58005L311.6 1.79005L308.79 0.230052C308.452 0.0430036 308.068 -0.0423617 307.683 -0.0157458C307.298 0.0108702 306.929 0.14833 306.62 0.380052L120.8 107.69C120.015 108.192 119.377 108.893 118.951 109.723C118.526 110.552 118.329 111.479 118.38 112.41L141.82 251.46C141.85 251.763 141.957 252.053 142.133 252.302C142.308 252.551 142.545 252.75 142.82 252.88L145.51 254.46L145.98 251.9H145.82L330.57 145.3C331.356 144.799 331.993 144.098 332.417 143.268C332.841 142.438 333.035 141.51 332.98 140.58Z" fill="url(#paint7_linear_1_431)"/>
<path d="M121.83 111.46L118.78 110.11C118.433 110.824 118.294 111.621 118.38 112.41L141.82 251.46C141.85 251.763 141.957 252.053 142.133 252.302C142.308 252.551 142.545 252.75 142.82 252.88L145.51 254.46L145.98 251.9H145.82L155.17 246.5L121.83 111.46Z" fill="url(#paint8_linear_1_431)"/>
<path d="M333.51 147L147.65 254.27C146.22 255.1 144.99 254.62 144.74 253.13L121.3 114.13C121.247 113.2 121.442 112.273 121.866 111.444C122.289 110.614 122.926 109.912 123.71 109.41L309.51 2.07003C310.94 1.24003 312.17 1.72003 312.42 3.21003L335.86 142.21C335.932 143.146 335.752 144.083 335.339 144.926C334.926 145.768 334.294 146.484 333.51 147Z" fill="#242993"/>
<g opacity="0.51">
<path d="M307.12 10.9501L127.99 114.37L150.2 245.32L329.21 141.97L307.12 10.9501Z" fill="#4553C7"/>
</g>
<path opacity="0.5" d="M448.73 241L264.79 347.2C263.758 347.776 262.604 348.101 261.423 348.15C260.242 348.198 259.066 347.969 257.99 347.48L148.22 284.11C146.48 283.11 146.7 281.34 148.71 280.18L332.65 174C333.684 173.424 334.839 173.099 336.022 173.05C337.204 173.002 338.382 173.231 339.46 173.72L449.22 237.09C450.97 238.1 450.75 239.86 448.73 241Z" fill="#242993"/>
<path d="M261.39 357.94C263.011 357.951 264.608 357.548 266.03 356.77L465.23 241.71C465.822 241.445 466.333 241.028 466.711 240.501C467.089 239.974 467.32 239.356 467.38 238.71C467.351 238.21 467.188 237.727 466.909 237.312C466.629 236.897 466.242 236.565 465.79 236.35L340.06 163.75C337.9 162.51 334.27 162.65 331.8 164.08L132.59 279.18C132.007 279.443 131.503 279.853 131.128 280.371C130.753 280.888 130.519 281.495 130.45 282.13C130.475 282.631 130.635 283.116 130.913 283.533C131.192 283.95 131.577 284.284 132.03 284.5L257.77 357.09C258.884 357.679 260.13 357.972 261.39 357.94ZM336.44 163.94C337.534 163.906 338.619 164.154 339.59 164.66L465.32 237.21C465.628 237.344 465.893 237.559 466.089 237.832C466.284 238.105 466.402 238.426 466.43 238.76C466.357 239.228 466.165 239.67 465.873 240.043C465.58 240.416 465.197 240.708 464.76 240.89L265.51 356C263.34 357.25 260.05 357.4 258.19 356.32L132.51 283.68C132.204 283.544 131.939 283.329 131.744 283.056C131.549 282.784 131.43 282.464 131.4 282.13C131.475 281.662 131.667 281.222 131.959 280.849C132.252 280.476 132.634 280.184 133.07 280L332.27 164.94C333.549 164.244 334.984 163.886 336.44 163.9V163.94Z" fill="#42FFFF"/>
<path d="M450.3 212.81L440.16 218.1L338.51 159.39C337.459 158.913 336.31 158.69 335.157 158.739C334.003 158.788 332.878 159.107 331.87 159.67L156.44 260.93C154.76 259.99 147.11 256.31 147.11 256.31L150.82 266C151.01 266.488 151.364 266.894 151.82 267.15L258.98 329C260.03 329.477 261.177 329.699 262.328 329.651C263.48 329.602 264.604 329.283 265.61 328.72L445.09 225.06C445.767 224.722 446.302 224.155 446.6 223.46L450.3 212.81Z" fill="url(#paint9_linear_1_431)"/>
<path d="M448.73 214.48L264.79 320.68C263.757 321.253 262.604 321.577 261.423 321.626C260.243 321.675 259.067 321.447 257.99 320.96L148.22 257.58C146.48 256.58 146.7 254.82 148.71 253.66L332.65 147.46C333.684 146.883 334.838 146.557 336.021 146.506C337.203 146.456 338.381 146.683 339.46 147.17L449.22 210.55C450.97 211.55 450.75 213.31 448.73 214.48Z" fill="url(#paint10_linear_1_431)"/>
<path d="M209.31 297.7V295.7C209.31 295.5 209.42 295.42 209.57 295.5L216.68 299.61C216.76 299.664 216.826 299.737 216.871 299.823C216.917 299.908 216.94 300.003 216.94 300.1V302.1C216.94 302.29 216.83 302.38 216.68 302.3L209.57 298.19C209.491 298.135 209.426 298.062 209.381 297.976C209.336 297.891 209.312 297.796 209.31 297.7Z" fill="#2859CB"/>
<path d="M219.95 303.85V301.85C219.95 301.66 220.06 301.57 220.21 301.65L227.32 305.76C227.4 305.817 227.465 305.892 227.51 305.979C227.555 306.066 227.579 306.162 227.58 306.26V308.26C227.58 308.45 227.46 308.54 227.32 308.46L220.21 304.35C220.128 304.295 220.062 304.22 220.016 304.133C219.971 304.046 219.948 303.948 219.95 303.85Z" fill="#2859CB"/>
<path d="M176.84 251.65L329.7 163.4C330.2 163.11 330.767 162.958 331.345 162.958C331.923 162.958 332.49 163.11 332.99 163.4L387.42 194.89C387.592 194.994 387.734 195.141 387.832 195.316C387.931 195.491 387.983 195.689 387.983 195.89C387.983 196.091 387.931 196.289 387.832 196.464C387.734 196.639 387.592 196.786 387.42 196.89L234.63 285.1C234.13 285.39 233.563 285.542 232.985 285.542C232.407 285.542 231.84 285.39 231.34 285.1L176.84 253.65C176.668 253.546 176.526 253.399 176.428 253.224C176.329 253.049 176.277 252.851 176.277 252.65C176.277 252.449 176.329 252.251 176.428 252.076C176.526 251.901 176.668 251.754 176.84 251.65Z" fill="#ADC8FF"/>
<path d="M176.84 253.68L177.39 254L329.7 166.06C330.2 165.77 330.767 165.618 331.345 165.618C331.923 165.618 332.49 165.77 332.99 166.06L386.87 197.24L387.42 196.92C387.592 196.816 387.734 196.669 387.832 196.494C387.931 196.319 387.983 196.121 387.983 195.92C387.983 195.719 387.931 195.522 387.832 195.346C387.734 195.171 387.592 195.024 387.42 194.92L332.99 163.43C332.49 163.14 331.923 162.988 331.345 162.988C330.767 162.988 330.2 163.14 329.7 163.43L176.84 251.68C176.668 251.784 176.526 251.931 176.428 252.106C176.329 252.282 176.277 252.479 176.277 252.68C176.277 252.881 176.329 253.079 176.428 253.254C176.526 253.429 176.668 253.576 176.84 253.68Z" fill="#91AFFF"/>
<path d="M337.1 171.37L204.32 248.03L198.41 244.63L331.19 167.97L337.1 171.37Z" fill="#242993"/>
<path d="M351.57 179.73L227.03 251.63L221.13 248.22L345.67 176.32L351.57 179.73Z" fill="#242993"/>
<path d="M361 185.17L214.36 269.83L208.46 266.42L355.09 181.76L361 185.17Z" fill="#242993"/>
<path d="M370.42 190.62L223.79 275.27L217.89 271.87L364.52 187.21L370.42 190.62Z" fill="#242993"/>
<path d="M379.85 196.06L233.22 280.72L227.31 277.31L373.95 192.65L379.85 196.06Z" fill="#242993"/>
<path d="M196.3 252.66L190.39 256.07L184.49 252.66L190.39 249.26L196.3 252.66Z" fill="#242993"/>
<path d="M217.12 257.36L204.87 264.43L198.96 261.02L211.22 253.95L217.12 257.36Z" fill="#242993"/>
<path d="M335.58 273L376.8 249.2C378.41 248.27 378.41 246.76 376.8 245.83L348.61 229.56C347.707 229.102 346.708 228.863 345.695 228.863C344.682 228.863 343.683 229.102 342.78 229.56L301.51 253.36C299.9 254.3 299.9 255.8 301.51 256.73L329.75 273C330.653 273.459 331.652 273.698 332.665 273.698C333.678 273.698 334.677 273.459 335.58 273Z" fill="url(#paint11_linear_1_431)"/>
<path d="M301.51 254.74L342.78 231C343.683 230.542 344.682 230.303 345.695 230.303C346.708 230.303 347.707 230.542 348.61 231L376.8 247.27C377.22 247.504 377.566 247.85 377.8 248.27C378.23 247.46 377.9 246.54 376.8 245.9L348.61 229.63C347.707 229.172 346.708 228.933 345.695 228.933C344.682 228.933 343.683 229.172 342.78 229.63L301.51 253.36C300.4 254.01 300.07 254.92 300.51 255.74C300.742 255.319 301.089 254.972 301.51 254.74Z" fill="#91AFFF"/>
<g opacity="0.11">
<path d="M332.83 147.24L148.89 253.44C147.858 254.016 146.704 254.341 145.523 254.39C144.342 254.438 143.166 254.209 142.09 253.72L32.32 190.35C30.58 189.35 30.8 187.58 32.81 186.42L216.75 80.2201C217.784 79.6442 218.939 79.3189 220.122 79.2703C221.304 79.2217 222.482 79.4511 223.56 79.9401L333.32 143.31C335.07 144.32 334.85 146.08 332.83 147.24Z" fill="url(#paint12_linear_1_431)"/>
<path d="M148.34 166.28L189.51 142.48C191.12 141.55 191.12 140.04 189.51 139.11L161.32 122.84C160.417 122.382 159.418 122.143 158.405 122.143C157.392 122.143 156.393 122.382 155.49 122.84L114.27 146.64C112.66 147.57 112.66 149.08 114.27 150.01L142.51 166.28C143.413 166.739 144.412 166.978 145.425 166.978C146.438 166.978 147.437 166.739 148.34 166.28Z" fill="url(#paint13_linear_1_431)"/>
<path d="M114.32 148L155.51 124.22C156.413 123.762 157.412 123.523 158.425 123.523C159.438 123.523 160.437 123.762 161.34 124.22L189.51 140.49C189.933 140.719 190.281 141.067 190.51 141.49C190.94 140.67 190.61 139.76 189.51 139.11L161.32 122.84C160.417 122.382 159.418 122.143 158.405 122.143C157.392 122.143 156.393 122.382 155.49 122.84L114.27 146.64C113.16 147.28 112.84 148.2 113.27 149.01C113.513 148.578 113.879 148.226 114.32 148Z" fill="#91AFFF"/>
<path d="M96.21 203.47L249.06 115.21C249.562 114.922 250.131 114.771 250.71 114.771C251.289 114.771 251.858 114.922 252.36 115.21L306.79 146.71C306.962 146.814 307.104 146.961 307.202 147.136C307.301 147.311 307.353 147.509 307.353 147.71C307.353 147.911 307.301 148.109 307.202 148.284C307.104 148.459 306.962 148.606 306.79 148.71L154 237C153.5 237.29 152.933 237.442 152.355 237.442C151.777 237.442 151.21 237.29 150.71 237L96.21 205.55C96.0191 205.452 95.8589 205.302 95.747 205.119C95.6352 204.936 95.576 204.725 95.576 204.51C95.576 204.295 95.6352 204.084 95.747 203.901C95.8589 203.718 96.0191 203.568 96.21 203.47Z" fill="#ADC8FF"/>
<path d="M96.21 205.5L96.75 205.81L249.06 117.88C249.562 117.59 250.131 117.438 250.71 117.438C251.289 117.438 251.858 117.59 252.36 117.88L306.24 149.06L306.79 148.74C306.962 148.636 307.104 148.489 307.202 148.314C307.301 148.139 307.353 147.941 307.353 147.74C307.353 147.539 307.301 147.342 307.202 147.166C307.104 146.991 306.962 146.844 306.79 146.74L252.36 115.24C251.858 114.952 251.289 114.801 250.71 114.801C250.131 114.801 249.562 114.952 249.06 115.24L96.21 203.47C96.0314 203.573 95.8829 203.72 95.7796 203.899C95.6764 204.077 95.622 204.279 95.622 204.485C95.622 204.691 95.6764 204.893 95.7796 205.072C95.8829 205.25 96.0314 205.398 96.21 205.5Z" fill="#91AFFF"/>
<path d="M292.55 144.56L159.38 221.44L164.65 224.49L297.82 147.6L292.55 144.56Z" fill="#242993"/>
<path d="M278.51 136.46L151.94 209.53L157.22 212.58L283.79 139.5L278.51 136.46Z" fill="#242993"/>
<path d="M142.49 214.99L130.67 221.82L135.94 224.86L147.76 218.04L142.49 214.99Z" fill="#242993"/>
<path d="M152.93 225.16L144.7 229.92L149.97 232.96L158.21 228.21L152.93 225.16Z" fill="#242993"/>
<path d="M269.72 131.38L121.88 216.74L127.15 219.79L275 134.43L269.72 131.38Z" fill="#242993"/>
<path d="M260.93 126.31L113.09 211.66L118.36 214.71L266.21 129.35L260.93 126.31Z" fill="#242993"/>
<path d="M252.14 121.23L104.29 206.59L109.57 209.63L257.41 124.28L252.14 121.23Z" fill="#242993"/>
</g>
<path opacity="0.42" d="M247.67 243.79L208.04 219.4L297.13 167.97L339.18 196.23L247.67 243.79Z" fill="url(#paint14_radial_1_431)"/>
<path opacity="0.42" d="M208.04 219.4L198.96 162.06L282.57 114.1V176.26L208.04 219.4Z" fill="url(#paint15_radial_1_431)"/>
<path d="M291.32 86.2501L282.51 81.1601C282.444 81.1183 282.368 81.0961 282.29 81.0961C282.212 81.0961 282.136 81.1183 282.07 81.1601L171.24 145.16C171.041 145.303 170.877 145.49 170.762 145.707C170.648 145.924 170.585 146.165 170.58 146.41V167.34C170.573 167.43 170.585 167.52 170.616 167.605C170.647 167.69 170.696 167.766 170.76 167.83L179.69 173L179.76 162.89L282.03 103.85C282.23 103.707 282.393 103.52 282.508 103.303C282.622 103.086 282.685 102.845 282.69 102.6V95.4201L291.32 86.2501Z" fill="url(#paint16_linear_1_431)"/>
<path d="M290.92 109L180.09 173C179.73 173.21 179.44 173 179.44 172.5V151.54C179.443 151.295 179.504 151.055 179.617 150.838C179.73 150.621 179.892 150.433 180.09 150.29L290.92 86.2901C291.29 86.0801 291.58 86.2901 291.58 86.7801V107.71C291.583 107.963 291.525 108.212 291.41 108.437C291.295 108.662 291.127 108.855 290.92 109Z" fill="url(#paint17_linear_1_431)"/>
<path opacity="0.6" d="M275.64 104.73L189.34 155.47C192.072 157.844 194.585 160.458 196.85 163.28L283.78 113.09C281.348 110.042 278.622 107.242 275.64 104.73Z" fill="#242993"/>
<path d="M287.76 102.69L183.25 163C183 163.15 182.8 163 182.8 162.67V157.41C182.803 157.242 182.846 157.076 182.924 156.927C183.002 156.778 183.114 156.649 183.25 156.55L287.76 96.2301C288.01 96.0901 288.21 96.2301 288.21 96.5701V101.83C288.207 101.998 288.164 102.164 288.086 102.313C288.008 102.462 287.896 102.591 287.76 102.69Z" fill="#242993"/>
<path d="M287.76 96.2301L285.64 97.4601V100.3C285.638 100.467 285.596 100.632 285.518 100.78C285.44 100.927 285.327 101.055 285.19 101.15L182.8 160.27V162.69C182.8 163.02 183 163.17 183.25 163.02L287.76 102.69C287.896 102.591 288.008 102.462 288.086 102.313C288.164 102.164 288.207 101.998 288.21 101.83V96.5701C288.21 96.2401 288.01 96.0901 287.76 96.2301Z" fill="#4553C7"/>
<path opacity="0.96" d="M346.51 329.08L433.46 278.88C422.24 272.4 412.79 258.23 409.9 244.68C409.341 241.963 408.214 239.394 406.595 237.142C404.975 234.89 402.898 233.005 400.5 231.61L334.8 193.68C325.774 188.496 318.176 181.151 312.688 172.305C307.201 163.46 303.995 153.39 303.36 143C302.36 125.19 288.84 107.68 278.36 101.64L191.42 151.84C201.71 157.78 213.05 174.4 214.34 191.9C215.021 202.277 218.234 212.329 223.697 221.178C229.161 230.026 236.708 237.402 245.68 242.66L313.51 281.8C315.905 283.199 317.979 285.085 319.598 287.337C321.218 289.588 322.346 292.155 322.91 294.87C325.79 308.43 335.25 322.6 346.46 329.08H346.51Z" fill="url(#paint18_linear_1_431)"/>
<path opacity="0.8" d="M278.39 101.64L191.45 151.84C192.15 152.24 192.83 152.68 193.52 153.13L280.45 102.94C279.78 102.48 279.09 102 278.39 101.64Z" fill="#4553C7"/>
<path d="M361.67 145H333.94V204.24C333.94 206.29 335.29 208.34 338 209.9C343.41 213.03 352.2 213.03 357.61 209.9C360.32 208.34 361.67 206.29 361.67 204.24V145Z" fill="url(#paint19_linear_1_431)"/>
<path d="M361.67 145H333.94V204.24C333.94 206.29 335.29 208.34 338 209.9C343.41 213.03 352.2 213.03 357.61 209.9C360.32 208.34 361.67 206.29 361.67 204.24V145Z" fill="url(#paint20_linear_1_431)"/>
<path d="M347.8 153C340.14 153 333.93 149.414 333.93 144.99C333.93 140.566 340.14 136.98 347.8 136.98C355.46 136.98 361.67 140.566 361.67 144.99C361.67 149.414 355.46 153 347.8 153Z" fill="url(#paint21_linear_1_431)"/>
<path opacity="0.3" d="M354.14 148.65C352.175 149.642 350.006 150.158 347.805 150.158C345.604 150.158 343.435 149.642 341.47 148.65C337.98 146.65 337.98 143.35 341.47 141.34C343.433 140.344 345.604 139.825 347.805 139.825C350.006 139.825 352.177 140.344 354.14 141.34C357.63 143.35 357.63 146.63 354.14 148.65Z" fill="url(#paint22_linear_1_431)"/>
<path opacity="0.5" d="M357.61 150.06C352.2 153.18 343.41 153.18 338 150.06C335.42 148.57 334.09 146.64 334 144.69C333.86 146.84 335.2 149.01 338 150.69C343.41 153.82 352.2 153.82 357.61 150.69C360.45 149.05 361.79 146.88 361.61 144.69C361.51 146.64 360.19 148.57 357.61 150.06Z" fill="white"/>
<path d="M361.67 132.12H333.94V137.53C333.94 139.58 335.29 141.63 338 143.19C343.41 146.32 352.2 146.32 357.61 143.19C360.32 141.63 361.67 139.58 361.67 137.53V132.12Z" fill="url(#paint23_linear_1_431)"/>
<path d="M361.67 132.12H333.94V137.53C333.94 139.58 335.29 141.63 338 143.19C343.41 146.32 352.2 146.32 357.61 143.19C360.32 141.63 361.67 139.58 361.67 137.53V132.12Z" fill="url(#paint24_linear_1_431)"/>
<path d="M347.8 140.13C340.14 140.13 333.93 136.544 333.93 132.12C333.93 127.696 340.14 124.11 347.8 124.11C355.46 124.11 361.67 127.696 361.67 132.12C361.67 136.544 355.46 140.13 347.8 140.13Z" fill="url(#paint25_linear_1_431)"/>
<path opacity="0.5" d="M357.61 137.19C352.2 140.31 343.41 140.31 338 137.19C335.42 135.7 334.09 133.77 334 131.82C333.86 133.97 335.2 136.14 338 137.82C343.41 140.95 352.2 140.95 357.61 137.82C360.45 136.18 361.79 134.01 361.61 131.82C361.51 133.77 360.19 135.7 357.61 137.19Z" fill="white"/>
<path d="M338.74 178H311.01V217.49C311.01 219.54 312.36 221.59 315.07 223.15C320.48 226.28 329.26 226.28 334.68 223.15C337.39 221.59 338.74 219.54 338.74 217.49V178Z" fill="url(#paint26_linear_1_431)"/>
<path d="M338.74 178H311.01V217.49C311.01 219.54 312.36 221.59 315.07 223.15C320.48 226.28 329.26 226.28 334.68 223.15C337.39 221.59 338.74 219.54 338.74 217.49V178Z" fill="url(#paint27_linear_1_431)"/>
<path d="M324.87 185.97C317.21 185.97 311 182.384 311 177.96C311 173.536 317.21 169.95 324.87 169.95C332.53 169.95 338.74 173.536 338.74 177.96C338.74 182.384 332.53 185.97 324.87 185.97Z" fill="url(#paint28_linear_1_431)"/>
<path opacity="0.5" d="M334.68 183C329.26 186.12 320.48 186.12 315.07 183C312.49 181.51 311.15 179.58 311.07 177.63C310.93 179.78 312.27 181.95 315.07 183.63C320.48 186.76 329.26 186.76 334.68 183.63C337.52 181.99 338.85 179.82 338.68 177.63C338.59 179.61 337.26 181.54 334.68 183Z" fill="white"/>
<path d="M315.81 171H288.07V230.72C288.07 232.72 289.43 234.81 292.14 236.38C297.55 239.5 306.33 239.5 311.75 236.38C314.46 234.81 315.81 232.77 315.81 230.72V171Z" fill="url(#paint29_linear_1_431)"/>
<path d="M315.81 171H288.07V230.72C288.07 232.72 289.43 234.81 292.14 236.38C297.55 239.5 306.33 239.5 311.75 236.38C314.46 234.81 315.81 232.77 315.81 230.72V171Z" fill="url(#paint30_linear_1_431)"/>
<path d="M311.75 176.62C306.33 179.75 297.55 179.75 292.14 176.62C286.73 173.49 286.72 168.42 292.14 165.3C297.56 162.18 306.33 162.17 311.75 165.3C317.17 168.43 317.16 173.49 311.75 176.62Z" fill="url(#paint31_linear_1_431)"/>
<path opacity="0.5" d="M311.75 176C306.33 179.12 297.55 179.12 292.14 176C289.56 174.51 288.22 172.58 288.14 170.63C288 172.78 289.34 174.95 292.14 176.63C297.55 179.76 306.33 179.76 311.75 176.63C314.59 174.99 315.92 172.82 315.75 170.63C315.66 172.61 314.32 174.54 311.75 176Z" fill="white"/>
<path d="M292.88 195H265.14V244C265.14 246 266.5 248.1 269.2 249.66C274.62 252.79 283.4 252.79 288.82 249.66C291.52 248.1 292.88 246.05 292.88 244V195Z" fill="url(#paint32_linear_1_431)"/>
<path d="M292.88 195H265.14V244C265.14 246 266.5 248.1 269.2 249.66C274.62 252.79 283.4 252.79 288.82 249.66C291.52 248.1 292.88 246.05 292.88 244V195Z" fill="url(#paint33_linear_1_431)"/>
<path d="M288.82 200.61C283.4 203.74 274.62 203.74 269.2 200.61C263.78 197.48 263.79 192.41 269.2 189.29C274.61 186.17 283.4 186.16 288.82 189.29C294.24 192.42 294.23 197.48 288.82 200.61Z" fill="url(#paint34_linear_1_431)"/>
<path opacity="0.5" d="M288.82 200C283.4 203.12 274.62 203.12 269.2 200C266.63 198.51 265.29 196.58 265.2 194.63C265.06 196.78 266.39 198.95 269.2 200.63C274.62 203.76 283.4 203.76 288.82 200.63C291.65 198.99 292.99 196.82 292.82 194.63C292.73 196.6 291.39 198.53 288.82 200Z" fill="white"/>
<path d="M269.95 220.24H242.21V257.12C242.21 259.17 243.56 261.22 246.27 262.79C251.69 265.91 260.47 265.91 265.88 262.79C268.59 261.22 269.95 259.17 269.95 257.12V220.24Z" fill="url(#paint35_linear_1_431)"/>
<path d="M269.95 220.24H242.21V257.12C242.21 259.17 243.56 261.22 246.27 262.79C251.69 265.91 260.47 265.91 265.88 262.79C268.59 261.22 269.95 259.17 269.95 257.12V220.24Z" fill="url(#paint36_linear_1_431)"/>
<path d="M256.08 228.25C248.42 228.25 242.21 224.664 242.21 220.24C242.21 215.816 248.42 212.23 256.08 212.23C263.74 212.23 269.95 215.816 269.95 220.24C269.95 224.664 263.74 228.25 256.08 228.25Z" fill="url(#paint37_linear_1_431)"/>
<path opacity="0.5" d="M265.88 225.31C260.47 228.44 251.69 228.44 246.27 225.31C243.7 223.82 242.36 221.89 242.27 219.94C242.14 222.09 243.47 224.26 246.27 225.94C251.69 229.07 260.47 229.07 265.88 225.94C268.72 224.3 270.06 222.13 269.88 219.94C269.8 221.89 268.46 223.82 265.88 225.31Z" fill="white"/>
<path d="M145.02 120.82L142.34 122.52L142.02 120.54L144.7 118.84L145.02 120.82Z" fill="#42FFFF"/>
<path d="M147.17 134.2L144.49 135.91L142.63 124.33L145.31 122.62L147.17 134.2Z" fill="#42FFFF"/>
<path d="M148.2 140.6L145.52 142.31L144.78 137.71L147.46 136L148.2 140.6Z" fill="#42FFFF"/>
<path d="M149.26 147.24L146.58 148.94L145.84 144.34L148.52 142.64L149.26 147.24Z" fill="#42FFFF"/>
<path d="M150.05 124.68L147.37 126.38L146.63 121.78L149.31 120.08L150.05 124.68Z" fill="#42FFFF"/>
<path d="M151.45 133.46L148.78 135.17L147.69 128.42L150.37 126.71L151.45 133.46Z" fill="#42FFFF"/>
<path d="M152.75 141.55L150.07 143.26L149.14 137.47L151.82 135.76L152.75 141.55Z" fill="#42FFFF"/>
<path d="M150.33 153.87L147.65 155.57L146.91 150.98L149.59 149.27L150.33 153.87Z" fill="#42FFFF"/>
<path d="M149.02 118.28L146.34 119.98L146.02 118L148.7 116.3L149.02 118.28Z" fill="#42FFFF"/>
<path d="M153.36 159.04L148.68 162.01L148.37 160.09L153.05 157.12L153.36 159.04Z" fill="#42FFFF"/>
<path d="M161.21 344C161.912 344.002 162.601 343.819 163.21 343.47L198.65 323L198.18 322.19L162.72 342.66C162.264 342.923 161.747 343.062 161.22 343.062C160.693 343.062 160.176 342.923 159.72 342.66L1.31 251.21C1.2037 251.148 1.11557 251.058 1.0542 250.951C0.992828 250.844 0.960358 250.723 0.960022 250.6C0.95723 250.476 0.988358 250.354 1.05005 250.246C1.11174 250.139 1.2016 250.05 1.31 249.99L37.51 229L37.04 228.19L0.790039 249.11C0.541046 249.255 0.334473 249.463 0.190918 249.713C0.0473633 249.963 -0.0281982 250.247 -0.0281982 250.535C-0.0281982 250.823 0.0473633 251.107 0.190918 251.357C0.334473 251.607 0.541046 251.815 0.790039 251.96L159.19 343.42C159.8 343.79 160.497 343.99 161.21 344Z" fill="#42FFFF"/>
<path d="M460.99 266.12C461.881 266.123 462.757 265.892 463.53 265.45L549.76 215.7C549.989 215.572 550.179 215.384 550.311 215.157C550.443 214.93 550.512 214.672 550.51 214.41C550.51 214.149 550.442 213.893 550.312 213.666C550.183 213.44 549.996 213.251 549.77 213.12L492.93 180.31L492.46 181.13L549.3 213.94C549.382 213.988 549.45 214.057 549.497 214.139C549.544 214.222 549.569 214.315 549.57 214.41C549.57 214.508 549.544 214.604 549.495 214.688C549.446 214.772 549.375 214.842 549.29 214.89L463.05 264.63C462.423 264.989 461.713 265.177 460.99 265.177C460.267 265.177 459.557 264.989 458.93 264.63L441.53 254.63L441.06 255.45L458.46 265.45C459.23 265.891 460.103 266.122 460.99 266.12Z" fill="#42FFFF"/>
<path d="M389.91 133L421.68 114.66L389.91 96.3101L358.14 114.66L389.91 133ZM419.91 114.66L389.91 132L359.91 114.66L389.91 97.3101L419.91 114.66Z" fill="#88FFF3"/>
<path d="M483.13 331.89L514.91 313.54L483.13 295.2L451.36 313.54L483.13 331.89ZM513.13 313.54L483.13 330.89L453.13 313.54L483.13 296.2L513.13 313.54Z" fill="#88FFF3"/>
<defs>
<linearGradient id="paint0_linear_1_431" x1="435.21" y1="117.99" x2="505.38" y2="174.26" gradientUnits="userSpaceOnUse">
<stop stop-color="#BCD5FF"/>
<stop offset="0.15" stop-color="#A3BEFF"/>
<stop offset="0.39" stop-color="#82A0FF"/>
<stop offset="0.61" stop-color="#6A8AFF"/>
<stop offset="0.82" stop-color="#5C7DFF"/>
<stop offset="1" stop-color="#5778FF"/>
</linearGradient>
<linearGradient id="paint1_linear_1_431" x1="422.088" y1="136.726" x2="520.123" y2="106.521" gradientUnits="userSpaceOnUse">
<stop stop-color="#C0D6FF"/>
<stop offset="0.3" stop-color="#C5DBFF"/>
<stop offset="0.65" stop-color="#D3E9FF"/>
<stop offset="1" stop-color="#E9FFFF"/>
</linearGradient>
<linearGradient id="paint2_linear_1_431" x1="41.17" y1="167.42" x2="111.35" y2="223.7" gradientUnits="userSpaceOnUse">
<stop stop-color="#BCD5FF"/>
<stop offset="0.15" stop-color="#A3BEFF"/>
<stop offset="0.39" stop-color="#82A0FF"/>
<stop offset="0.61" stop-color="#6A8AFF"/>
<stop offset="0.82" stop-color="#5C7DFF"/>
<stop offset="1" stop-color="#5778FF"/>
</linearGradient>
<linearGradient id="paint3_linear_1_431" x1="26.9411" y1="185.765" x2="124.977" y2="155.56" gradientUnits="userSpaceOnUse">
<stop stop-color="#C0D6FF"/>
<stop offset="0.3" stop-color="#C5DBFF"/>
<stop offset="0.65" stop-color="#D3E9FF"/>
<stop offset="1" stop-color="#E9FFFF"/>
</linearGradient>
<linearGradient id="paint4_linear_1_431" x1="26.9411" y1="185.765" x2="124.977" y2="155.56" gradientUnits="userSpaceOnUse">
<stop stop-color="#C0D6FF"/>
<stop offset="0.3" stop-color="#C5DBFF"/>
<stop offset="0.65" stop-color="#D3E9FF"/>
<stop offset="1" stop-color="#E9FFFF"/>
</linearGradient>
<linearGradient id="paint5_linear_1_431" x1="41.17" y1="148.96" x2="111.35" y2="205.23" gradientUnits="userSpaceOnUse">
<stop stop-color="#BCD5FF"/>
<stop offset="0.15" stop-color="#A3BEFF"/>
<stop offset="0.39" stop-color="#82A0FF"/>
<stop offset="0.61" stop-color="#6A8AFF"/>
<stop offset="0.82" stop-color="#5C7DFF"/>
<stop offset="1" stop-color="#5778FF"/>
</linearGradient>
<linearGradient id="paint6_linear_1_431" x1="27.0113" y1="167.261" x2="125.049" y2="137.042" gradientUnits="userSpaceOnUse">
<stop stop-color="#C0D6FF"/>
<stop offset="0.3" stop-color="#C5DBFF"/>
<stop offset="0.65" stop-color="#D3E9FF"/>
<stop offset="1" stop-color="#E9FFFF"/>
</linearGradient>
<linearGradient id="paint7_linear_1_431" x1="118.35" y1="127.23" x2="333.03" y2="127.23" gradientUnits="userSpaceOnUse">
<stop stop-color="#C0D6FF"/>
<stop offset="0.3" stop-color="#C5DBFF"/>
<stop offset="0.65" stop-color="#D3E9FF"/>
<stop offset="1" stop-color="#E9FFFF"/>
</linearGradient>
<linearGradient id="paint8_linear_1_431" x1="118.35" y1="182.29" x2="155.21" y2="182.29" gradientUnits="userSpaceOnUse">
<stop stop-color="#5778FF"/>
<stop offset="0.18" stop-color="#5C7DFF"/>
<stop offset="0.39" stop-color="#6A8AFF"/>
<stop offset="0.61" stop-color="#82A0FF"/>
<stop offset="0.85" stop-color="#A3BEFF"/>
<stop offset="1" stop-color="#BCD5FF"/>
</linearGradient>
<linearGradient id="paint9_linear_1_431" x1="147.11" y1="244.18" x2="450.3" y2="244.18" gradientUnits="userSpaceOnUse">
<stop stop-color="#5778FF"/>
<stop offset="0.18" stop-color="#5C7DFF"/>
<stop offset="0.39" stop-color="#6A8AFF"/>
<stop offset="0.61" stop-color="#82A0FF"/>
<stop offset="0.85" stop-color="#A3BEFF"/>
<stop offset="1" stop-color="#BCD5FF"/>
</linearGradient>
<linearGradient id="paint10_linear_1_431" x1="248.98" y1="234.07" x2="552.34" y2="234.07" gradientUnits="userSpaceOnUse">
<stop stop-color="#C0D6FF"/>
<stop offset="0.3" stop-color="#C5DBFF"/>
<stop offset="0.65" stop-color="#D3E9FF"/>
<stop offset="1" stop-color="#E9FFFF"/>
</linearGradient>
<linearGradient id="paint11_linear_1_431" x1="300.36" y1="251.29" x2="378.01" y2="251.29" gradientUnits="userSpaceOnUse">
<stop stop-color="#C0D6FF"/>
<stop offset="0.3" stop-color="#C5DBFF"/>
<stop offset="0.65" stop-color="#D3E9FF"/>
<stop offset="1" stop-color="#E9FFFF"/>
</linearGradient>
<linearGradient id="paint12_linear_1_431" x1="133.08" y1="166.83" x2="436.44" y2="166.83" gradientUnits="userSpaceOnUse">
<stop stop-color="#C0D6FF"/>
<stop offset="0.3" stop-color="#C5DBFF"/>
<stop offset="0.65" stop-color="#D3E9FF"/>
<stop offset="1" stop-color="#E9FFFF"/>
</linearGradient>
<linearGradient id="paint13_linear_1_431" x1="113.12" y1="144.56" x2="190.77" y2="144.56" gradientUnits="userSpaceOnUse">
<stop stop-color="#C0D6FF"/>
<stop offset="0.3" stop-color="#C5DBFF"/>
<stop offset="0.65" stop-color="#D3E9FF"/>
<stop offset="1" stop-color="#E9FFFF"/>
</linearGradient>
<radialGradient id="paint14_radial_1_431" cx="0" cy="0" r="1" gradientUnits="userSpaceOnUse" gradientTransform="translate(235.47 205.88) scale(86.97 86.97)">
<stop stop-color="#2B3AA5"/>
<stop offset="1" stop-color="#182484"/>
</radialGradient>
<radialGradient id="paint15_radial_1_431" cx="0" cy="0" r="1" gradientUnits="userSpaceOnUse" gradientTransform="translate(216.45 166.75) scale(66.57 66.57)">
<stop stop-color="#2B3AA5"/>
<stop offset="1" stop-color="#182484"/>
</radialGradient>
<linearGradient id="paint16_linear_1_431" x1="192.49" y1="185.97" x2="251.12" y2="80.3801" gradientUnits="userSpaceOnUse">
<stop stop-color="#5778FF"/>
<stop offset="0.04" stop-color="#5C7DFF"/>
<stop offset="0.09" stop-color="#6A8AFF"/>
<stop offset="0.14" stop-color="#82A0FF"/>
<stop offset="0.19" stop-color="#A3BEFF"/>
<stop offset="0.22" stop-color="#BCD5FF"/>
</linearGradient>
<linearGradient id="paint17_linear_1_431" x1="264.52" y1="186.35" x2="225.49" y2="110.05" gradientUnits="userSpaceOnUse">
<stop stop-color="#C0D6FF"/>
<stop offset="0.3" stop-color="#C5DBFF"/>
<stop offset="0.65" stop-color="#D3E9FF"/>
<stop offset="1" stop-color="#E9FFFF"/>
</linearGradient>
<linearGradient id="paint18_linear_1_431" x1="370.01" y1="323.5" x2="245.97" y2="103.7" gradientUnits="userSpaceOnUse">
<stop stop-color="#C0D6FF"/>
<stop offset="0.08" stop-color="#C3D9FF"/>
<stop offset="0.13" stop-color="#CCE2FF"/>
<stop offset="0.18" stop-color="#DCF2FF"/>
<stop offset="0.21" stop-color="#E9FFFF"/>
<stop offset="0.26" stop-color="#D8EEFF"/>
<stop offset="0.31" stop-color="#CBE1FF"/>
<stop offset="0.39" stop-color="#C2D8FF"/>
<stop offset="0.51" stop-color="#C0D6FF"/>
<stop offset="0.62" stop-color="#D0E6FF"/>
<stop offset="0.75" stop-color="#E9FFFF"/>
<stop offset="1" stop-color="#C0D6FF"/>
</linearGradient>
<linearGradient id="paint19_linear_1_431" x1="333.93" y1="178.61" x2="361.51" y2="178.61" gradientUnits="userSpaceOnUse">
<stop stop-color="#C0D6FF"/>
<stop offset="0.5" stop-color="#D2E8FF"/>
<stop offset="1" stop-color="#E9FFFF"/>
</linearGradient>
<linearGradient id="paint20_linear_1_431" x1="303.03" y1="178.61" x2="356.32" y2="178.61" gradientUnits="userSpaceOnUse">
<stop stop-color="#5778FF"/>
<stop offset="0.18" stop-color="#5C7DFF"/>
<stop offset="0.39" stop-color="#6A8AFF"/>
<stop offset="0.61" stop-color="#82A0FF"/>
<stop offset="0.85" stop-color="#A3BEFF"/>
<stop offset="1" stop-color="#BCD5FF"/>
</linearGradient>
<linearGradient id="paint21_linear_1_431" x1="346.034" y1="139.335" x2="355.815" y2="156.354" gradientUnits="userSpaceOnUse">
<stop stop-color="#C0D6FF"/>
<stop offset="0.3" stop-color="#C5DBFF"/>
<stop offset="0.65" stop-color="#D3E9FF"/>
<stop offset="1" stop-color="#E9FFFF"/>
</linearGradient>
<linearGradient id="paint22_linear_1_431" x1="349.523" y1="141.34" x2="355.839" y2="152.33" gradientUnits="userSpaceOnUse">
<stop stop-color="#5778FF"/>
<stop offset="0.18" stop-color="#5C7DFF"/>
<stop offset="0.39" stop-color="#6A8AFF"/>
<stop offset="0.61" stop-color="#82A0FF"/>
<stop offset="0.85" stop-color="#A3BEFF"/>
<stop offset="1" stop-color="#BCD5FF"/>
</linearGradient>
<linearGradient id="paint23_linear_1_431" x1="333.93" y1="138.83" x2="361.51" y2="138.83" gradientUnits="userSpaceOnUse">
<stop stop-color="#C0D6FF"/>
<stop offset="0.5" stop-color="#D2E8FF"/>
<stop offset="1" stop-color="#E9FFFF"/>
</linearGradient>
<linearGradient id="paint24_linear_1_431" x1="303.03" y1="138.83" x2="356.32" y2="138.83" gradientUnits="userSpaceOnUse">
<stop stop-color="#5778FF"/>
<stop offset="0.18" stop-color="#5C7DFF"/>
<stop offset="0.39" stop-color="#6A8AFF"/>
<stop offset="0.61" stop-color="#82A0FF"/>
<stop offset="0.85" stop-color="#A3BEFF"/>
<stop offset="1" stop-color="#BCD5FF"/>
</linearGradient>
<linearGradient id="paint25_linear_1_431" x1="346.025" y1="126.46" x2="355.811" y2="143.486" gradientUnits="userSpaceOnUse">
<stop stop-color="#C0D6FF"/>
<stop offset="0.3" stop-color="#C5DBFF"/>
<stop offset="0.65" stop-color="#D3E9FF"/>
<stop offset="1" stop-color="#E9FFFF"/>
</linearGradient>
<linearGradient id="paint26_linear_1_431" x1="311" y1="201.71" x2="338.58" y2="201.71" gradientUnits="userSpaceOnUse">
<stop stop-color="#C0D6FF"/>
<stop offset="0.5" stop-color="#D2E8FF"/>
<stop offset="1" stop-color="#E9FFFF"/>
</linearGradient>
<linearGradient id="paint27_linear_1_431" x1="280.1" y1="201.71" x2="333.39" y2="201.71" gradientUnits="userSpaceOnUse">
<stop stop-color="#5778FF"/>
<stop offset="0.18" stop-color="#5C7DFF"/>
<stop offset="0.39" stop-color="#6A8AFF"/>
<stop offset="0.61" stop-color="#82A0FF"/>
<stop offset="0.85" stop-color="#A3BEFF"/>
<stop offset="1" stop-color="#BCD5FF"/>
</linearGradient>
<linearGradient id="paint28_linear_1_431" x1="322.988" y1="172.3" x2="332.773" y2="189.326" gradientUnits="userSpaceOnUse">
<stop stop-color="#C0D6FF"/>
<stop offset="0.3" stop-color="#C5DBFF"/>
<stop offset="0.65" stop-color="#D3E9FF"/>
<stop offset="1" stop-color="#E9FFFF"/>
</linearGradient>
<linearGradient id="paint29_linear_1_431" x1="288.07" y1="204.82" x2="315.65" y2="204.82" gradientUnits="userSpaceOnUse">
<stop stop-color="#C0D6FF"/>
<stop offset="0.5" stop-color="#D2E8FF"/>
<stop offset="1" stop-color="#E9FFFF"/>
</linearGradient>
<linearGradient id="paint30_linear_1_431" x1="257.17" y1="204.82" x2="310.46" y2="204.82" gradientUnits="userSpaceOnUse">
<stop stop-color="#5778FF"/>
<stop offset="0.18" stop-color="#5C7DFF"/>
<stop offset="0.39" stop-color="#6A8AFF"/>
<stop offset="0.61" stop-color="#82A0FF"/>
<stop offset="0.85" stop-color="#A3BEFF"/>
<stop offset="1" stop-color="#BCD5FF"/>
</linearGradient>
<linearGradient id="paint31_linear_1_431" x1="299.95" y1="165.3" x2="309.735" y2="182.326" gradientUnits="userSpaceOnUse">
<stop stop-color="#C0D6FF"/>
<stop offset="0.3" stop-color="#C5DBFF"/>
<stop offset="0.65" stop-color="#D3E9FF"/>
<stop offset="1" stop-color="#E9FFFF"/>
</linearGradient>
<linearGradient id="paint32_linear_1_431" x1="265.14" y1="223.43" x2="292.72" y2="223.43" gradientUnits="userSpaceOnUse">
<stop stop-color="#C0D6FF"/>
<stop offset="0.5" stop-color="#D2E8FF"/>
<stop offset="1" stop-color="#E9FFFF"/>
</linearGradient>
<linearGradient id="paint33_linear_1_431" x1="234.23" y1="223.43" x2="287.53" y2="223.43" gradientUnits="userSpaceOnUse">
<stop stop-color="#5778FF"/>
<stop offset="0.18" stop-color="#5C7DFF"/>
<stop offset="0.39" stop-color="#6A8AFF"/>
<stop offset="0.61" stop-color="#82A0FF"/>
<stop offset="0.85" stop-color="#A3BEFF"/>
<stop offset="1" stop-color="#BCD5FF"/>
</linearGradient>
<linearGradient id="paint34_linear_1_431" x1="276.913" y1="189.29" x2="286.698" y2="206.316" gradientUnits="userSpaceOnUse">
<stop stop-color="#C0D6FF"/>
<stop offset="0.3" stop-color="#C5DBFF"/>
<stop offset="0.65" stop-color="#D3E9FF"/>
<stop offset="1" stop-color="#E9FFFF"/>
</linearGradient>
<linearGradient id="paint35_linear_1_431" x1="242.21" y1="242.69" x2="269.79" y2="242.69" gradientUnits="userSpaceOnUse">
<stop stop-color="#C0D6FF"/>
<stop offset="0.5" stop-color="#D2E8FF"/>
<stop offset="1" stop-color="#E9FFFF"/>
</linearGradient>
<linearGradient id="paint36_linear_1_431" x1="211.3" y1="242.69" x2="264.6" y2="242.69" gradientUnits="userSpaceOnUse">
<stop stop-color="#5778FF"/>
<stop offset="0.18" stop-color="#5C7DFF"/>
<stop offset="0.39" stop-color="#6A8AFF"/>
<stop offset="0.61" stop-color="#82A0FF"/>
<stop offset="0.85" stop-color="#A3BEFF"/>
<stop offset="1" stop-color="#BCD5FF"/>
</linearGradient>
<linearGradient id="paint37_linear_1_431" x1="253.884" y1="214.585" x2="263.665" y2="231.604" gradientUnits="userSpaceOnUse">
<stop stop-color="#C0D6FF"/>
<stop offset="0.3" stop-color="#C5DBFF"/>
<stop offset="0.65" stop-color="#D3E9FF"/>
<stop offset="1" stop-color="#E9FFFF"/>
</linearGradient>
</defs>
</svg>
