<svg width="360" height="286" viewBox="0 0 360 286" fill="none" xmlns="http://www.w3.org/2000/svg">
<path d="M146.771 20.8696C140.205 29.764 135.724 39.9861 130.149 49.5379C121.987 63.5627 111.52 76.0535 102.649 89.7045C89.543 109.801 87.5216 135.685 75.6126 156.554C63.7036 177.424 41.5078 193.795 20.947 206.105C14.3294 210.075 6.68192 213.698 3.56627 220.761C1.81532 224.732 1.80244 229.243 1.95694 233.652C2.34667 244.325 3.63875 254.946 5.81932 265.401C6.26842 268.383 7.26823 271.255 8.76761 273.87C11.4842 278.059 16.3379 280.315 21.1272 281.746C37.7612 286.619 55.5668 283.319 72.6257 280.006L105.237 273.638C115.756 271.588 126.339 269.526 136.419 265.904C147.569 261.843 157.92 255.901 168.735 250.99C182.021 244.957 195.965 240.51 209.689 235.521C242.545 223.636 274.242 208.773 305.875 193.924L343.752 176.057C350.666 172.809 358.455 168.491 359.768 160.963C361.249 152.584 353.988 145.572 350.061 138.031C346.134 130.49 345.387 121.273 341.461 113.539C336.942 104.657 328.586 98.3669 322.986 90.117C318.994 84.2518 316.548 77.5101 313.973 70.7813C310.437 61.208 306.901 51.6305 303.365 42.0486C300.185 33.4764 296.927 24.7238 291.134 17.647C285.34 10.5701 276.547 5.3753 267.47 6.4452C256.205 7.73425 245.905 18.2142 235.052 14.9271C232.393 13.9221 229.855 12.6252 227.482 11.06C203.02 -2.82302 164.357 -2.9777 146.771 20.8696Z" fill="white"/>
<path d="M166.816 83.6074C167.1 86.7011 163.34 88.8925 160.289 88.3125C157.238 87.7324 154.869 85.3863 152.641 83.1563C150.981 81.5321 148.779 79.8177 146.59 80.5782C146.073 80.7627 145.6 81.0523 145.2 81.429C141.441 84.7547 143.513 91.1355 146.964 94.7834C148.419 96.3174 150.157 97.7998 150.62 99.8623C151.084 101.925 149.333 104.554 147.273 103.871C146.566 103.528 145.952 103.02 145.483 102.389C143.397 100.094 140.629 98.1607 137.527 98.0834C134.424 98.0061 131.167 100.378 131.167 103.484C131.167 108.95 139.664 110.561 141.183 115.808C141.338 116.226 141.402 116.672 141.371 117.116C141.34 117.561 141.214 117.994 141.003 118.386C139.793 120.358 136.793 119.275 134.759 118.18C131.72 116.542 128.167 115.318 124.858 116.285C121.549 117.251 118.949 121.17 120.609 124.251C121.897 126.739 125.193 127.383 127.999 127.718C143.556 129.578 159.226 130.319 174.889 129.936C180.039 129.807 186.399 128.647 187.905 123.748C188.314 122.059 188.362 120.302 188.047 118.592C187.673 115.215 187.313 111.85 186.939 108.473C186.115 100.958 185.176 93.0819 180.837 86.8816C177.99 83.0242 174.241 79.9257 169.919 77.8583C167.215 76.4661 159.735 72.2381 156.658 73.2306C149.603 75.6025 166.456 79.5985 166.816 83.6074Z" fill="#7F5AF0"/>
<path d="M81.934 237.97C80.8268 235.173 81.4191 232.002 82.2817 229.127C86.6848 214.51 97.6411 202.522 110.4 194.169C123.159 185.816 137.733 180.672 152.268 176.122C165.683 171.855 179.511 167.821 190.892 159.545C196.032 155.604 200.849 151.259 205.299 146.551C230.057 121.673 249.523 95.1443 270.084 66.6951C275.234 59.6312 286.679 50.1954 295.382 50.4532C298.356 50.5305 301.485 54.5394 304.021 56.0992C312.956 61.5518 319.471 73.0501 323.719 82.6535C326.642 89.3436 327.685 94.7447 330.607 101.448C331.271 102.573 331.508 103.9 331.277 105.186C330.8 106.733 329.152 107.519 327.659 108.125C308.63 115.756 287.748 121.119 273.225 135.685C267.882 141.073 263.685 147.479 258.638 153.151C253.269 158.918 247.377 164.174 241.039 168.852C203.119 198.031 160.293 220.186 114.584 234.271C108.211 236.217 85.4359 246.852 81.934 237.97Z" fill="#1D1D1F"/>
<path d="M11.9605 243.217C16.6726 237.97 24.3845 235.186 31.0793 237.365C38.6625 239.839 43.1557 247.535 49.6188 252.201C58.116 258.324 69.4457 258.814 79.8226 257.448C90.1995 256.081 100.422 253.065 110.889 253.078C112.73 253.078 114.751 253.284 115.962 254.715C117.558 256.674 116.284 259.871 114.056 261.083C111.829 262.295 109.112 262.037 106.628 261.586C104.143 261.134 101.581 260.49 99.1088 261.044C95.6198 261.831 93.0963 264.77 90.0965 266.755C87.0968 268.74 82.3975 269.41 80.4792 266.432C80.0157 265.736 79.7067 264.86 78.96 264.499C78.3444 264.252 77.6573 264.252 77.0417 264.499C74.3251 265.388 72.2008 267.477 69.819 269.075C67.4372 270.673 64.2958 271.756 61.7595 270.428C60.9484 270.003 60.2661 269.359 59.4292 268.985C56.5839 267.696 53.5326 270.016 50.5329 270.815C44.7908 272.362 37.7226 268.598 33.165 272.426C32.578 272.866 32.1598 273.494 31.9805 274.205C31.5943 276.203 34.0147 277.531 36.036 277.763C38.7526 278.073 41.6365 277.673 44.0955 278.885C46.5546 280.096 47.8421 284.041 45.5375 285.459C44.25 286.271 42.615 285.923 41.1601 285.536L15.6684 278.794C0.334731 274.798 3.29589 252.872 11.9605 243.217Z" fill="#93F4CB"/>
<path d="M257.57 107.828C257.57 112.482 261.561 116.027 265.217 118.901C266.891 120.19 268.848 121.608 270.933 121.235C272.098 120.921 273.171 120.333 274.062 119.52C280.928 114.149 287.559 108.494 293.953 102.556C303.455 93.7263 288.675 84.587 279.611 85.8761C272.028 86.9589 257.57 99.9266 257.57 107.828Z" fill="#4F97ED"/>
<path d="M200.484 53.8433C203.77 51.4957 206.661 48.6365 209.045 45.3742C214.77 38.2587 220.225 30.9241 225.409 23.3703C226.014 22.4808 226.619 21.2562 225.962 20.4055C225.473 19.9288 224.817 19.6608 224.134 19.6578C214.697 18.4977 204.565 17.4665 196.222 22.0168C197.265 23.8086 199.286 24.7238 200.87 26.0515C202.453 27.3792 203.638 29.7897 202.415 31.4397C201.192 33.0897 199.093 32.7287 197.329 32.3033C194.548 31.5557 191.87 30.3182 188.999 30.2151C186.128 30.112 182.91 31.5041 182.189 34.3271C185.289 35.7021 188.033 37.7703 190.21 40.3728C191.935 42.4481 193.016 46.0832 190.673 47.4238C188.883 48.4679 186.618 47.0371 185.343 45.4C184.068 43.7629 183 41.7262 181.056 40.9915C178.198 39.8829 175.159 42.2161 173.395 44.7297C172.275 46.341 167.344 51.5874 167.962 53.5597C168.657 55.7768 176.241 56.3053 178.262 56.6405C185.716 57.878 193.866 58.0971 200.484 53.8433Z" fill="#7F5AF0"/>
<path d="M199.557 108.421C200.685 114.347 203.064 119.964 206.535 124.895C209.11 128.518 212.83 131.998 217.233 131.663C220.169 131.431 222.705 129.536 224.778 127.435C227.03 125.013 229.1 122.428 230.971 119.701L248.995 94.8994C250.354 93.3591 251.247 91.4634 251.57 89.4338L239.21 96.8716C234.717 99.7309 230.018 102.252 225.151 104.413C222.37 105.573 219.319 106.501 216.397 105.83C215.069 105.498 213.807 104.945 212.663 104.193C210.454 102.81 208.492 101.067 206.856 99.0372C205.492 97.3744 204.436 93.4428 202.08 94.7189C198.269 96.8716 198.848 105.018 199.557 108.421Z" fill="#FF4387"/>
<path d="M208.324 100.997C210.938 103.414 214.2 105.014 217.71 105.599C219.813 106.123 221.991 106.28 224.147 106.063C226.394 105.694 228.567 104.967 230.584 103.91C238.953 99.9139 246.42 94.2421 253.488 88.2222C254.171 87.6422 254.917 86.8558 254.711 85.9922C248.827 87.4877 243.189 89.8279 237.974 92.9401C234.702 95.1185 231.32 97.1277 227.842 98.96C224.325 100.795 220.291 101.385 216.397 100.636C214.468 100.151 212.673 99.2395 211.144 97.9674C209.792 96.8588 208.839 94.6288 207.474 93.7264C203.419 91.1097 206.998 99.6432 208.324 100.997Z" fill="#ED6E76"/>
<path d="M214.594 99.5012C217.371 100.844 220.551 101.092 223.503 100.197C226.423 99.3097 229.218 98.0535 231.82 96.4591L256.424 82.8081C245.905 86.3659 236.687 93.5072 225.988 96.6782C223.31 97.4903 220.362 97.9673 217.761 96.9876C215.735 96.0404 214.079 94.4499 213.049 92.463C212.302 91.174 211.466 87.4229 210.101 89.1631C207.771 92.1795 212.199 98.2122 214.594 99.5012Z" fill="#F4952F"/>
<path d="M212.985 90.813C213.772 92.5503 215.013 94.0423 216.577 95.1313C217.552 96.0155 218.727 96.6483 220.001 96.9747C221.11 97.1071 222.235 96.9971 223.297 96.6524C227.349 95.4548 231.29 93.9109 235.078 92.0376L257.415 81.7253C259.089 80.9519 261.02 79.8304 261.084 77.9871C250.025 81.2612 240.318 87.9127 229.889 92.8755C227.044 94.1646 223.774 95.4536 220.812 94.3966C217.851 93.3396 216.693 90.7357 215.379 88.2221C213.41 84.5225 212.019 88.1963 212.985 90.813Z" fill="#E7CD49"/>
<path d="M217.71 90.4523C218.311 91.4995 219.154 92.3868 220.169 93.0396C221.184 93.6923 222.341 94.0915 223.542 94.2034C226.22 94.4225 228.769 93.198 231.177 92.012L263.234 76.1181C261.536 75.89 259.808 76.1963 258.291 76.9947C252.673 79.3177 247.219 82.0179 241.966 85.077C236.017 88.5187 229.799 92.5663 222.937 92.1023C222.089 92.0879 221.259 91.8525 220.529 91.4191C218.727 90.13 218.856 86.5336 216.886 85.9278C216.617 87.486 216.909 89.0894 217.71 90.4523Z" fill="#617F4C"/>
<path d="M220.156 86.8042C220.266 87.5896 220.556 88.339 221.002 88.9941C221.449 89.6491 222.04 90.1922 222.731 90.5811C224.263 91.2514 226.04 90.6584 227.61 90.0655L235.09 87.2553C242.273 84.7081 249.294 81.7249 256.115 78.3223C259.32 76.6465 262.436 74.7774 265.526 72.8825C266.165 72.5394 266.75 72.1052 267.264 71.5935C267.877 70.8762 268.207 69.9592 268.191 69.0154L266.698 69.5955C257.943 73.1016 250.18 78.7219 241.605 82.6792C238.579 84.0843 235.464 85.2573 232.348 86.4561C231.571 86.7832 230.765 87.0378 229.941 87.2167C228.399 87.5196 226.801 87.297 225.401 86.5844C224.001 85.8718 222.88 84.7103 222.216 83.2851C221.997 82.8081 221.714 80.707 221.006 80.823C220.298 80.939 220.066 83.1304 220.001 83.5816C219.863 84.6565 219.915 85.7475 220.156 86.8042Z" fill="#93F4CB"/>
<path d="M224.842 83.3238C225.032 84.0848 225.41 84.7857 225.941 85.3624C226.471 85.939 227.139 86.3727 227.881 86.6238C228.959 86.8215 230.07 86.7462 231.112 86.4047C238.592 84.484 245.133 79.9594 252.188 76.8528C257.57 74.4423 263.299 72.7537 268.346 69.6729C270.393 68.3838 272.478 66.6694 272.71 64.2847C259.99 69.0155 249.111 77.9872 236.262 82.4989C235.144 82.9521 233.953 83.201 232.747 83.2336C231.077 83.1571 229.495 82.4636 228.306 81.2872C227.585 80.604 225.975 77.1751 225.087 77.8067C224.199 78.4384 224.546 82.3055 224.842 83.3238Z" fill="#4F97ED"/>
<path d="M227.881 79.9207C227.93 80.3754 228.075 80.8146 228.306 81.2097C228.686 81.7252 229.18 82.1458 229.75 82.4387C230.319 82.7316 230.948 82.8889 231.589 82.8984C234.807 83.2077 237.897 81.7253 240.794 80.3203L271.255 65.2643C274.113 63.8592 277.242 62.119 278.117 59.064C264.174 66.4373 250.218 73.7977 236.12 80.8746C235.768 81.0891 235.372 81.2212 234.962 81.2613C234.663 81.2674 234.365 81.2149 234.086 81.1066C232.34 80.5146 230.847 79.3465 229.85 77.7938C229.284 76.9301 229.078 76.0149 228.331 77.291C227.907 78.0977 227.749 79.0185 227.881 79.9207Z" fill="#B56EDB"/>
<path d="M292.82 36.3123C294.687 38.9936 296.786 41.4685 298.897 44.0466C300.475 46.0311 302.196 47.8967 304.047 49.6282C306.145 51.5102 308.54 53.057 310.6 54.9777C309.342 52.354 307.833 49.8588 306.094 47.527C300.764 39.4318 297.7 29.9574 291.932 22.12C290.693 20.4385 289.369 18.8208 287.966 17.2732C287.091 16.2935 285.392 13.6381 283.95 13.767C283.435 17.2216 285.713 22.3649 286.988 25.5617C288.512 29.3584 290.469 32.9659 292.82 36.3123Z" fill="#4F97ED"/>
<path d="M354.541 160.653C353.357 155.768 348.207 153.203 344.241 150.122C340.318 147.019 337.241 142.976 335.294 138.365C333.347 133.755 332.594 128.727 333.105 123.748C333.53 120.036 334.392 115.601 331.624 113.126C329.68 111.399 326.745 111.502 324.17 111.837C307.433 114.415 292.82 124.612 279.843 135.581C276.29 138.401 273.106 141.658 270.367 145.275C266.685 150.431 264.805 156.709 262.977 162.819C261.707 167.116 260.419 171.413 259.114 175.709C257.483 180.716 256.192 185.828 255.252 191.01C254.209 197.791 253.604 207.072 256.243 213.581C259.127 220.697 266.35 214.742 270.933 211.403C279.946 204.829 290.245 200.343 300.468 195.78C314.432 189.532 328.294 183.048 342.053 176.328C345.39 174.921 348.464 172.955 351.142 170.515C353.743 167.924 355.339 164.172 354.541 160.653ZM330.35 155.291C329.976 157.457 328.225 159.081 326.487 160.447C315.192 169.859 301.897 176.56 287.619 180.041C285.134 180.646 282.366 181.098 280.126 179.86C276.869 178.043 276.354 173.26 278.105 169.96C279.855 166.66 283.151 164.546 286.383 162.677C292.475 159.193 298.779 156.093 305.257 153.396C310.935 150.998 318.363 146.848 324.711 148.24C327.955 148.975 330.878 152.017 330.35 155.291Z" fill="#2CB67D"/>
<path d="M5.79357 248.27C14.8058 236.668 34.504 235.702 44.5204 246.478C46.6447 248.76 48.4729 251.531 51.344 252.756C54.215 253.98 57.5238 253.374 60.5751 252.64C66.7663 251.142 72.8452 249.213 78.7669 246.865C80.0703 246.445 81.2687 245.75 82.2817 244.828C83.462 243.317 84.2056 241.512 84.4317 239.607C87.3414 226.524 92.8517 213.826 101.787 203.798C117.326 186.421 140.9 179.306 162.877 171.572C184.854 163.837 208.041 153.525 219.242 133.016C214.87 131.42 210.931 128.825 207.737 125.437C204.543 122.049 202.183 117.962 200.844 113.5C199.557 109.272 199.389 104.477 201.423 100.61C203.029 97.9552 205.121 95.6284 207.59 93.7521L227.276 76.7625C229.297 80.6296 234.37 82.1894 238.708 81.403C243.047 80.6167 246.819 78.0773 250.45 75.5766C245.879 76.7625 241.154 73.2949 239.249 68.9767C237.344 64.6584 237.575 59.7342 237.833 55.0292C238.313 46.109 238.794 37.1974 239.275 28.2945C239.387 27.2755 239.343 26.2453 239.146 25.2394C238.052 20.6246 231.267 19.7739 227.404 22.5324C223.542 25.291 221.752 30.0218 219.589 34.2498C211.427 50.2726 192.334 62.2092 175.301 56.3698C173.41 55.5189 171.383 55.0126 169.314 54.8745C167.241 54.9519 165.014 56.4085 164.988 58.4838C166.881 59.1612 168.587 60.2768 169.967 61.7395C171.348 63.2023 172.364 64.9709 172.932 66.9013C172.025 67.2371 171.059 67.3844 170.093 67.3341C169.127 67.2838 168.182 67.037 167.314 66.6088C166.447 66.1806 165.676 65.5799 165.048 64.8434C164.42 64.107 163.948 63.2501 163.662 62.3252L152.938 69.6083L168.773 83.7878C173.807 88.3896 178.957 93.0302 182.433 98.9082C190.158 112.056 187.982 128.556 185.382 143.574C184.944 146.152 184.442 148.807 182.704 150.702C181.253 152.069 179.522 153.103 177.631 153.731C170.125 156.838 162.619 159.944 155.075 162.974C129.094 173.381 102.722 182.73 75.9602 191.023C62.2273 195.32 48.4257 199.29 34.5555 202.934C25.4402 205.345 15.2435 206.066 9.2311 214.058C1.87969 223.855 -0.82398 237.326 5.79357 248.27Z" fill="#AFAFAF"/>
<path d="M220.645 232.724C221.153 232.755 221.66 232.648 222.113 232.415L232.194 228.354C232.422 228.297 232.637 228.195 232.825 228.053C233.013 227.911 233.17 227.733 233.288 227.529C233.584 226.743 232.734 225.75 233.288 225.106C233.457 224.928 233.67 224.799 233.906 224.732L241.541 221.715C241.566 222.016 241.696 222.298 241.908 222.512C242.12 222.726 242.4 222.859 242.699 222.889C243.306 222.912 243.909 222.779 244.45 222.502L252.973 219.06C253.405 218.924 253.804 218.7 254.145 218.403C254.75 217.835 255.033 217.114 254.557 216.469L254.969 216.211C262.136 212.868 269.281 209.465 276.405 206.002C277.486 206.234 278.611 206.158 279.651 205.782C280.691 205.406 281.605 204.745 282.289 203.875C282.494 203.58 282.651 203.253 282.752 202.908L288.855 199.892C290.367 200.178 291.925 200.111 293.407 199.698C294.889 199.284 296.257 198.535 297.404 197.507C297.142 196.967 297.035 196.365 297.095 195.767L302.373 193.099C303.035 193.485 303.541 194.092 303.802 194.813L310.034 192.338C309.689 191.831 309.536 191.218 309.602 190.609C309.668 189.999 309.949 189.433 310.394 189.012L313.638 187.337C315.595 187.169 317.591 187.775 319.587 187.736C321.758 187.628 323.825 186.768 325.433 185.303C327.042 183.838 328.092 181.86 328.406 179.706L333.375 177.669C337.432 177.806 341.449 176.825 344.987 174.831C348.524 172.837 351.447 169.908 353.434 166.364C354.841 165.679 356.097 164.719 357.129 163.541C360.476 159.261 357.67 153.1 354.902 148.42C353.035 145.275 351.194 142.117 349.198 139.075C347.421 136.342 346.623 133.081 345.606 129.974L338.383 108.37C338.013 106.743 337.15 105.271 335.912 104.155C335.126 103.588 334.148 103.317 333.337 102.75C332.312 101.849 331.543 100.693 331.109 99.3982C328.689 93.7779 326.603 88.003 323.732 82.6406C322.445 80.2559 320.732 78.2192 319.393 75.9633C318.054 73.7075 317.231 70.4978 316.213 67.9197C311.415 56.2819 305.947 44.9322 299.837 33.9276C294.932 24.6852 288.597 14.8627 279.444 9.34559C267.187 1.95937 255.78 12.2459 244.077 14.5018C241.789 15.0203 239.431 15.1553 237.099 14.9014C234.868 14.5154 232.702 13.8213 230.662 12.8389C222.499 9.28114 215.212 3.81559 206.29 2.34608C192.463 2.59354e-05 177.76 -0.618715 164.795 4.73081C146.127 12.3748 143.9 29.648 133.407 44.24C119.927 62.9698 106.859 82.3312 97.1518 103.304C93.8431 110.407 90.8819 117.651 87.8821 124.895C80.5693 142.542 72.2395 161.221 58.734 175.297C55.7016 178.223 52.3653 180.816 48.7819 183.031C35.7256 191.794 23.1584 201.265 11.1365 211.403C8.73044 213.274 6.56784 215.439 4.69923 217.848C-0.566488 225.26 0.399108 234.606 1.28746 243.075C2.06133 249.536 3.7972 255.845 6.4373 261.792C9.11522 268.044 10.4284 274.682 16.5439 278.691C20.8182 281.476 25.9166 282.674 30.9634 283.435C34.2593 283.925 37.5939 284.247 40.9155 284.492C42.4216 284.776 43.9597 284.85 45.486 284.711C46.9022 284.376 47.7777 282.984 48.7819 282.056C50.0178 280.812 51.5802 279.945 53.288 279.555L53.8674 281.037C56.4425 280.589 59.0578 280.416 61.6694 280.522C62.3518 280.522 63.1371 280.522 63.5233 279.98C63.9096 279.439 63.7422 278.614 64.2572 278.214C64.5777 278.034 64.9493 277.966 65.3129 278.021C69.24 278.117 73.1688 277.923 77.0674 277.441C80.9942 277.093 85.7707 277.003 89.4786 275.585C89.7351 275.544 89.983 275.461 90.2124 275.34C91.0879 274.85 91.1523 273.651 91.1136 272.646C92.6056 271.997 94.2123 271.655 95.8386 271.64L96.8042 273.587C96.876 273.781 97.0065 273.947 97.1776 274.064C97.4215 274.16 97.6932 274.16 97.9372 274.064C101.297 273.071 104.696 272.774 107.954 271.485C109.264 271.063 110.501 270.441 111.623 269.642C111.886 269.406 112.092 269.112 112.223 268.783C112.355 268.455 112.41 268.1 112.383 267.747L117.043 266.845C117.241 266.787 117.451 266.787 117.648 266.845C117.931 266.961 118.047 267.283 118.215 267.541C118.443 267.817 118.738 268.031 119.071 268.161C119.404 268.292 119.765 268.336 120.12 268.289C120.831 268.18 121.518 267.954 122.154 267.618C127.342 265.463 132.677 263.684 138.119 262.295C138.948 262.126 139.728 261.769 140.398 261.25C140.726 260.983 140.955 260.612 141.049 260.199C141.142 259.785 141.094 259.352 140.913 258.969L145.161 257.68C145.329 257.629 145.508 257.629 145.676 257.68C145.872 257.764 146.032 257.915 146.127 258.105L147.324 260.026C147.543 260.374 153.182 257.976 153.762 257.744C158.615 255.708 163.559 253.877 168.464 251.982C169.315 251.547 170.242 251.28 171.194 251.196C171.837 251.196 172.34 251.75 173.009 251.531C178.391 249.739 183.579 247.355 188.871 245.318C190.248 244.789 204.925 239.543 204.848 239.156L204.655 238.28C209.805 236.191 214.912 234.043 219.976 231.834L220.645 232.724Z" stroke="black" stroke-width="0.91" stroke-linejoin="round"/>
<path d="M136.471 39.6511C147.708 35.3109 159.757 33.485 171.773 34.3015C178.481 34.7656 185.716 36.3898 189.991 41.5975C190.735 42.4239 191.246 43.4339 191.471 44.5236C191.577 45.0687 191.522 45.6327 191.314 46.1474C191.106 46.6621 190.754 47.1055 190.3 47.424C188.716 48.4037 186.746 47.1404 185.15 46.1349C177.18 40.8241 166.919 40.7339 157.366 41.2753C155.036 41.4171 152.719 41.5717 150.388 41.7651C142.947 42.3709 134.784 43.6084 129.879 49.2673" stroke="black" stroke-width="0.91" stroke-linejoin="round"/>
<path d="M155.976 34.8041C166.585 24.8914 181.532 18.9102 195.694 21.9137C198.269 22.4551 200.986 23.4348 202.376 25.6648C203.767 27.8949 202.904 31.5686 200.316 32.0069C199.325 32.0849 198.328 31.9487 197.394 31.6073C193.828 30.7471 190.198 30.1823 186.54 29.9187C183.285 29.4664 179.987 29.4058 176.717 29.7382C173.413 30.0849 170.349 31.6301 168.104 34.0823" stroke="black" stroke-width="0.91" stroke-linejoin="round"/>
<path d="M151.341 41.5588C142.299 45.3757 134.014 50.7851 126.879 57.5301C125.232 59.351 123.241 60.8274 121.021 61.8742" stroke="black" stroke-width="0.91" stroke-linejoin="round"/>
<path d="M125.077 72.4828C124.211 70.2729 124.244 67.8115 125.167 65.6251C126.097 63.4735 127.333 61.4677 128.836 59.6697C129.953 58.1679 131.216 56.7818 132.609 55.5319C134.944 53.7323 137.552 52.318 140.333 51.3425C140.416 51.7791 140.401 52.2285 140.289 52.6585C140.178 53.0886 139.973 53.4887 139.69 53.8304C136.587 58.9866 134.257 64.9419 134.797 70.9489" stroke="black" stroke-width="0.91" stroke-linejoin="round"/>
<path d="M132.094 70.6008C139.252 69.9563 146.384 71.8899 153.247 74.0039C158.087 75.5121 163.353 77.523 165.696 82.0347C166.072 82.6275 166.302 83.3013 166.367 84.0005C166.432 84.6997 166.33 85.4044 166.07 86.0565C165.607 86.7533 164.934 87.2841 164.149 87.5715C163.364 87.859 162.508 87.8882 161.705 87.6549C160.112 87.1482 158.614 86.3769 157.276 85.3733C151.262 81.7639 144.442 79.7168 137.437 79.4179C130.459 79.1312 123.473 79.6939 116.631 81.0937C117.301 80.9648 119.116 77.291 119.592 76.6078C120.334 75.3225 121.278 74.1648 122.386 73.1789C124.884 71.4001 129.094 70.8973 132.094 70.6008Z" stroke="black" stroke-width="0.91" stroke-linejoin="round"/>
<path d="M135.183 63.0472C140.109 60.2567 145.771 59.0471 151.405 59.582C157.039 60.1168 162.374 62.3702 166.688 66.0377C167.769 67.0045 168.992 68.126 170.447 67.9713C172.237 67.7779 173.215 65.5479 172.764 63.7948C172.145 62.0844 171.023 60.6015 169.546 59.541C165.078 55.6738 159.941 52.0774 154.096 51.6907C149.037 51.3555 144.17 53.4567 139.175 54.2688" stroke="black" stroke-width="0.91" stroke-linejoin="round"/>
<path d="M124.24 69.9822C119.212 71.8542 114.543 74.5795 110.438 78.0387" stroke="black" stroke-width="0.91" stroke-linejoin="round"/>
<path d="M127.15 61.4873C123.876 62.6253 120.793 64.2552 118.009 66.3212" stroke="black" stroke-width="0.91" stroke-linejoin="round"/>
<path d="M116.361 81.4031C115.555 81.5225 114.792 81.8464 114.146 82.3441C110.85 84.5226 107.928 87.3842 104.22 88.7893" stroke="black" stroke-width="0.91" stroke-linejoin="round"/>
<path d="M98.0917 101.241C108.881 92.9795 120.35 85.6486 132.377 79.3276" stroke="black" stroke-width="0.91" stroke-linejoin="round"/>
<path d="M115.485 91.3931C116.769 91.0152 118.099 90.8157 119.438 90.8002C122.236 90.6627 125.034 90.5596 127.832 90.4908C133.651 90.349 139.728 90.4908 144.891 93.1462C147.723 94.6563 150.114 96.8773 151.83 99.5915C152.324 100.25 152.595 101.05 152.603 101.873C152.448 103.484 150.504 104.361 148.921 104.103C147.369 103.669 145.895 102.99 144.556 102.092C141.594 100.758 138.422 99.9511 135.183 99.7075C130.613 99.1145 126.03 98.5344 121.433 98.2122C116.837 97.8899 112.241 98.4829 107.748 98.2122C107.992 95.7759 113.297 92.1537 115.485 91.3931Z" stroke="black" stroke-width="0.91" stroke-linejoin="round"/>
<path d="M108.147 98.5859C106.151 98.8309 104.58 100.352 102.997 101.654C100.87 103.421 98.5144 104.891 95.9931 106.024C95.7227 106.14 95.4266 106.488 95.6712 106.642" stroke="black" stroke-width="0.91" stroke-linejoin="round"/>
<path d="M92.4912 115.898L106.525 106.191C110.771 102.985 115.393 100.309 120.288 98.2251" stroke="black" stroke-width="0.91" stroke-linejoin="round"/>
<path d="M104.709 108.28C105.914 107.721 107.186 107.322 108.494 107.094C116.013 105.431 124.098 103.794 131.244 106.694C134.993 108.434 138.395 110.84 141.286 113.797C142.573 114.97 143.861 116.865 142.741 118.18C141.621 119.494 139.921 118.811 138.531 118.18C124.974 112.405 111.198 112.817 97.4866 117.458C97.1776 115.602 98.7741 114.777 99.7397 113.513C101.336 111.644 102.353 109.569 104.709 108.28Z" stroke="black" stroke-width="0.91" stroke-linejoin="round"/>
<path d="M97.4608 117.728C94.328 119.559 91.2725 121.488 88.2941 123.516" stroke="black" stroke-width="0.91" stroke-linejoin="round"/>
<path d="M85.4102 132.088C93.8265 125.123 103.015 119.15 112.794 114.287" stroke="black" stroke-width="0.91" stroke-linejoin="round"/>
<path d="M79.1403 142.929L101.503 133.519C105.031 132.037 108.752 130.516 112.55 130.941C116.348 131.366 119.811 133.944 122.85 136.407C123.519 136.948 124.279 137.696 123.983 138.572C123.883 138.785 123.742 138.976 123.567 139.133C123.392 139.29 123.188 139.411 122.965 139.487C120.159 140.776 117.005 139.062 113.953 138.585C110.541 138.056 107.117 139.036 103.808 140.016C93.8817 142.942 83.7751 145.958 75.2264 151.785" stroke="black" stroke-width="0.91" stroke-linejoin="round"/>
<path d="M83.891 134.95C87.5645 134.487 91.295 135.003 94.7057 136.445" stroke="black" stroke-width="0.91" stroke-linejoin="round"/>
<path d="M90.972 128.466C92.0433 128.042 93.2243 127.983 94.3323 128.298L102.817 129.807C104.661 130.03 106.459 130.538 108.147 131.315" stroke="black" stroke-width="0.91" stroke-linejoin="round"/>
<path d="M74.3638 153.77C81.7728 149.546 89.764 146.441 98.0788 144.553C102.25 143.599 107.091 142.555 109.074 138.74" stroke="black" stroke-width="0.91" stroke-linejoin="round"/>
<path d="M114.661 131.263L119.811 124.496" stroke="black" stroke-width="0.91" stroke-linejoin="round"/>
<path d="M124.485 114.3C122.601 116.269 120.927 118.429 119.489 120.745C119.174 121.184 118.955 121.685 118.846 122.214C118.844 122.775 118.989 123.326 119.267 123.812C119.545 124.299 119.946 124.703 120.429 124.986C124.086 127.564 176.421 128.853 185.716 128.672" stroke="black" stroke-width="0.91" stroke-linejoin="round"/>
<path d="M130.034 105.611C131.076 103.639 132.145 101.667 133.239 99.7205" stroke="black" stroke-width="0.91" stroke-linejoin="round"/>
<path d="M139.046 91.1224C141.621 87.7623 144.161 84.3248 146.668 80.8101" stroke="black" stroke-width="0.91" stroke-linejoin="round"/>
<path d="M150.903 72.5732C150.903 72.4443 150.697 72.7021 150.826 72.7537C150.955 72.8052 151.084 72.6763 151.161 72.5603C151.38 72.2252 151.586 71.8771 151.792 71.5291C150.683 71.0138 149.627 70.3921 148.637 69.6729L153.659 60.4949" stroke="black" stroke-width="0.91" stroke-linejoin="round"/>
<path d="M158.667 52.5415C161.165 49.1255 163.39 45.5179 165.323 41.7522" stroke="black" stroke-width="0.91" stroke-linejoin="round"/>
<path d="M170.473 34.237C171.806 32.6959 173.364 31.3659 175.095 30.2925" stroke="black" stroke-width="0.91" stroke-linejoin="round"/>
<path d="M182.987 21.9139C188.05 17.2587 194.279 14.0646 201.011 12.6714C207.729 11.2924 214.601 10.8199 221.443 11.2664C223.946 11.2781 226.436 11.6249 228.846 12.2976C231.974 13.4611 234.872 15.1672 237.408 17.3377C241.27 20.3541 245.055 23.5638 248.66 26.9282C253.63 31.5946 258.316 36.5832 263.634 40.8499C265.458 42.4607 267.573 43.7077 269.865 44.5237C271.013 44.9176 272.236 45.0412 273.44 44.8847C274.643 44.7282 275.795 44.2958 276.804 43.6213C279.379 41.7007 279.933 38.1687 280.306 34.9976C281.034 30.3086 281.267 25.556 281.001 20.8182C280.73 16.0487 278.994 11.4794 276.032 7.73438" stroke="black" stroke-width="0.91" stroke-linejoin="round"/>
<path d="M260.299 9.73242C262.957 14.4508 264.623 19.6636 265.194 25.0505C265.765 30.4373 265.23 35.8842 263.621 41.0562" stroke="black" stroke-width="0.91" stroke-linejoin="round"/>
<path d="M282.933 11.3953C285.612 24.1795 291.673 36.0083 300.481 45.6451C304.807 50.3759 309.802 54.5653 313.355 59.9148" stroke="black" stroke-width="0.91" stroke-linejoin="round"/>
<path d="M150.839 71.3615C150.697 71.4904 150.839 71.7353 150.968 71.8642C151.249 72.0622 151.58 72.1779 151.923 72.1984C152.267 72.2189 152.609 72.1434 152.912 71.9802C153.511 71.6522 154.044 71.215 154.482 70.6912L161.242 63.3823" stroke="black" stroke-width="0.91" stroke-linejoin="round"/>
<path d="M165.181 56.1508C167.825 51.2086 170.97 46.5521 174.567 42.2549" stroke="black" stroke-width="0.91" stroke-linejoin="round"/>
<path d="M180.026 35.8354L185.806 29.6479" stroke="black" stroke-width="0.91" stroke-linejoin="round"/>
<path d="M194.574 21.6818C200.581 18.8782 207.194 17.6284 213.809 18.0467C220.394 18.4596 226.914 19.6009 233.249 21.4497C235.913 22.1202 238.524 22.9818 241.064 24.0278C246.665 26.477 251.364 30.473 256.063 34.4562" stroke="black" stroke-width="0.91" stroke-linejoin="round"/>
<path d="M165.851 55.0163C171.013 55.1756 176.129 56.0431 181.056 57.5944C183.068 58.3487 185.151 58.8972 187.274 59.2315C193.248 59.8373 198.784 56.0991 203.149 51.9871C212.843 42.8606 219.705 31.2077 226.426 19.761" stroke="black" stroke-width="0.91" stroke-linejoin="round"/>
<path d="M170.859 61.9387C178.661 60.8945 186.566 64.5167 194.329 63.2277C201.153 62.132 206.856 57.4399 211.517 52.3353C219.898 43.1444 226.014 32.1618 232.116 21.2822" stroke="black" stroke-width="0.91" stroke-linejoin="round"/>
<path d="M152.036 72.0833C154.43 71.8794 156.836 72.2736 159.04 73.2306C166.615 76.003 173.411 80.5616 178.854 86.5206C180.68 88.3708 182.128 90.5602 183.116 92.9658C183.534 94.2261 183.844 95.5198 184.043 96.833C186.347 110.149 186.811 123.71 187.261 137.232C187.416 141.717 187.403 146.667 184.468 150.122C182.498 152.378 179.575 153.499 176.743 154.531L161.461 160.189C145.483 167.137 38.6238 205.345 12.7974 210.423" stroke="black" stroke-width="0.91" stroke-linejoin="round"/>
<path d="M157.869 67.314C166.881 71.8643 178.095 74.1975 184.751 81.8028C191.407 89.4082 194.201 133.236 192.604 143.471C191.858 148.253 190.879 153.319 187.583 156.851C184.661 159.996 180.386 161.427 176.292 162.729C134.849 176.006 42.8853 208.722 7.15828 214.871" stroke="black" stroke-width="0.91" stroke-linejoin="round"/>
<path d="M82.3975 245.511C78.8956 227.684 88.4486 209.199 102.418 197.61C116.387 186.022 134.154 180.131 151.727 175.568C162.246 172.835 172.983 170.411 182.755 165.668C191.587 161.125 199.64 155.203 206.612 148.124C237.395 117.96 254.699 74.1844 291.082 51.0976C291.918 50.4611 292.919 50.0806 293.966 50.002C295.205 50.1659 296.352 50.7425 297.223 51.639L315.081 66.3728" stroke="black" stroke-width="0.91" stroke-linejoin="round"/>
<path d="M270.843 92.6435L260.801 103.446C259.179 105.186 257.441 107.313 257.724 109.62C258.077 111.206 258.919 112.64 260.132 113.719C262.32 116.04 264.716 118.154 267.29 120.036C268.108 120.72 269.08 121.193 270.122 121.415C271.835 121.634 273.418 120.551 274.809 119.52L293.541 105.702C296.464 103.536 299.489 101.241 301.034 97.9673C301.425 97.2692 301.655 96.4922 301.706 95.6936C301.757 94.8949 301.629 94.0949 301.33 93.3525C300.471 92.044 299.197 91.0632 297.713 90.5682C293.309 88.5573 287.13 84.5483 282.263 84.1229C277.886 83.7878 273.534 89.7432 270.843 92.6435Z" stroke="black" stroke-width="0.91" stroke-linejoin="round"/>
<path d="M223.001 130.039C216.397 129.91 209.251 128.582 204.848 123.593C202.862 121.186 201.402 118.389 200.561 115.382C199.891 113.364 199.429 111.282 199.183 109.169C198.62 103.409 200.273 97.6505 203.805 93.0689C204.565 99.5141 211.247 104.567 217.645 105.121C224.044 105.676 230.34 103.046 235.85 99.7333C241.36 96.4204 246.485 92.3728 252.33 89.6787" stroke="black" stroke-width="0.91" stroke-linejoin="round"/>
<path d="M204.372 96.4978C205.299 94.5643 206.23 92.6307 207.165 90.6971C208.929 96.6525 215.727 99.9654 221.933 99.6431C228.138 99.3208 233.79 96.2013 239.069 92.9272C244.347 89.653 249.613 86.0952 255.664 84.6902" stroke="black" stroke-width="0.91" stroke-linejoin="round"/>
<path d="M208.414 94.1001C209.021 92.3007 209.819 90.572 210.796 88.944C213.371 92.6049 216.371 96.4333 220.722 97.297C224.585 98.0704 228.524 96.2271 232.078 94.4353L258.587 81.0808" stroke="black" stroke-width="0.91" stroke-linejoin="round"/>
<path d="M212.238 91.9991C212.448 89.7436 213.237 87.5809 214.53 85.7215C215.817 89.1632 217.375 92.9659 220.748 94.4225C224.405 95.9952 228.55 94.1132 232.091 92.2698L262.243 76.5564" stroke="black" stroke-width="0.91" stroke-linejoin="round"/>
<path d="M216.152 89.8722C215.983 87.4571 216.722 85.066 218.225 83.1692C218.92 86.7914 220.195 91.0582 223.735 92.0507C226.052 92.6823 228.447 91.6124 230.61 90.5554L263.711 74.3779" stroke="black" stroke-width="0.91" stroke-linejoin="round"/>
<path d="M218.984 87.655C219.242 84.9304 220.08 82.2929 221.443 79.9208C222.332 82.3184 223.349 84.8707 225.499 86.2371C228.885 88.3769 233.301 86.6109 236.88 84.832L268.783 68.9768" stroke="black" stroke-width="0.91" stroke-linejoin="round"/>
<path d="M223.645 84.0971C223.841 81.486 224.555 78.9401 225.744 76.6078C226.543 78.6193 227.594 80.5208 228.872 82.2667C229.322 82.9598 229.931 83.5345 230.649 83.9425C232.116 84.6257 233.816 83.9425 235.284 83.2464C248.536 77.0074 261.586 70.3559 274.435 63.292" stroke="black" stroke-width="0.91" stroke-linejoin="round"/>
<path d="M227.108 81.3386C227.008 80.2206 227.164 79.0944 227.566 78.0464C227.968 76.9984 228.604 76.0565 229.426 75.293C229.799 77.9871 230.919 81.3902 233.623 81.4289C234.536 81.3595 235.419 81.0722 236.198 80.591L279.855 58.355" stroke="black" stroke-width="0.91" stroke-linejoin="round"/>
<path d="M6.17981 263.648C8.83198 260.683 6.10256 256.159 5.6777 252.188C5.17559 247.522 8.25262 243.062 12.2566 240.587C16.2606 238.112 20.9599 237.184 25.569 236.32C27.8361 235.705 30.22 235.661 32.5084 236.191C36.8343 237.596 38.6753 242.534 41.276 246.285C45.6148 252.536 53.082 256.056 60.5879 257.203C68.0938 258.35 75.78 257.435 83.3116 256.404C109.061 252.863 134.621 248.094 159.993 242.095C164.126 241.116 168.632 239.839 171.001 236.307C172.031 234.773 172.661 232.801 174.309 231.963C177.258 230.468 180.399 233.742 183.669 234.193C185.347 234.294 187.027 234.021 188.587 233.394L223.838 222.064C227.52 220.878 231.679 219.253 232.953 215.618C233.417 214.329 233.43 212.821 234.009 211.532C234.588 210.243 236.108 209.173 237.356 209.818C238.605 210.462 238.644 211.893 239.545 212.821C241.039 214.432 243.704 213.672 245.712 212.821L257.119 207.82" stroke="black" stroke-width="0.91" stroke-linejoin="round"/>
<path d="M256.205 215.386C256.774 213.734 256.993 211.981 256.849 210.239C256.705 208.497 256.201 206.804 255.368 205.267C254.888 204.544 254.507 203.759 254.235 202.934C254.087 202.12 254.087 201.286 254.235 200.472C255.342 192.08 257.685 183.856 258.303 175.426C258.677 170.541 258.471 165.526 260.003 160.873C261.535 156.219 264.805 152.081 268.114 148.292C273.161 142.504 278.478 136.987 283.795 131.457C287.812 127.28 291.893 123.065 296.773 119.933C300.334 117.754 304.114 115.957 308.051 114.57C311.54 113.281 315.068 112.082 318.634 111.038C321.105 110.142 323.739 109.786 326.359 109.994C328.412 110.405 330.329 111.33 331.929 112.683C333.53 114.035 334.762 115.771 335.512 117.728C336.948 121.698 337.29 125.981 336.504 130.129C336.118 132.707 335.512 135.285 336.015 137.863C337.045 143.019 342.156 146.152 346.314 149.387C350.757 152.83 354.561 157.027 357.554 161.788" stroke="black" stroke-width="0.91" stroke-linejoin="round"/>
<path d="M287.58 162.626C284.259 164.198 280.834 165.952 278.748 168.968C276.663 171.984 276.495 176.702 279.353 178.958C282.611 181.536 287.387 179.835 291.147 178.004L322.239 162.884C325.148 161.453 328.29 159.816 329.59 156.838C331.045 153.525 329.5 149.49 326.938 147.17C323.475 144.051 319.78 147.763 316.278 149.503C306.854 154.183 297.082 158.127 287.58 162.626Z" stroke="black" stroke-width="0.91" stroke-linejoin="round"/>
<path d="M327.144 109.672C327.042 109.758 326.919 109.816 326.788 109.838C326.657 109.861 326.522 109.848 326.397 109.801C326.664 108.164 327.19 106.58 327.955 105.109C328.338 104.373 328.886 103.736 329.556 103.249C330.226 102.761 331 102.436 331.817 102.299C332.088 102.299 332.448 102.376 332.397 102.634" stroke="black" stroke-width="0.91" stroke-linejoin="round"/>
<path d="M48.9235 253.49C87.1483 242.83 125.412 231.847 162.001 216.456C198.591 201.065 233.623 181.098 262.771 154.131" stroke="black" stroke-width="0.91" stroke-linejoin="round"/>
<path d="M5.29146 252.343L37.3364 242.108" stroke="black" stroke-width="0.91" stroke-linejoin="round"/>
<path d="M7.06816 260.786C19.1446 256.816 31.1351 252.622 43.0398 248.205" stroke="black" stroke-width="0.91" stroke-linejoin="round"/>
<path d="M8.13675 268.121C22.4096 265.363 36.2028 260.53 49.078 253.774" stroke="black" stroke-width="0.91" stroke-linejoin="round"/>
<path d="M11.5871 274.128C27.9324 271.105 43.6502 265.339 58.0774 257.074" stroke="black" stroke-width="0.91" stroke-linejoin="round"/>
<path d="M48.4214 281.978C48.641 281.718 48.8069 281.417 48.9096 281.093C49.0123 280.768 49.0498 280.426 49.0199 280.087C48.9899 279.748 48.8932 279.418 48.7352 279.117C48.5773 278.815 48.3612 278.548 48.0996 278.33C46.9995 277.49 45.6902 276.968 44.3144 276.822L30.8733 274.244C32.1745 272.609 33.9578 271.428 35.9691 270.868C37.9804 270.308 40.117 270.397 42.0742 271.125C42.743 271.466 43.459 271.705 44.1986 271.834C44.8513 271.845 45.5008 271.74 46.1169 271.524L56.8929 268.443C57.8042 268.097 58.7927 268.008 59.7511 268.186C59.9825 268.244 60.2 268.348 60.3907 268.492C60.5814 268.635 60.7414 268.816 60.8614 269.023C60.9813 269.229 61.0588 269.458 61.0892 269.695C61.1197 269.932 61.1024 270.172 61.0385 270.403C66.8579 271.279 71.9176 266.536 77.6082 265.027C78.4684 264.711 79.413 264.711 80.2732 265.027C80.4774 265.12 80.6595 265.255 80.8071 265.424C80.9548 265.593 81.0646 265.792 81.1293 266.007C81.1939 266.221 81.2118 266.448 81.1819 266.67C81.1519 266.893 81.0748 267.106 80.9556 267.296C85.8608 267.18 91.1008 266.974 95.1176 264.125C96.109 263.416 96.9973 262.565 98.0144 261.882C99.0454 261.199 100.174 260.678 101.362 260.335C102.276 259.985 103.278 259.94 104.22 260.206C104.683 260.358 105.071 260.678 105.31 261.103C105.548 261.528 105.619 262.026 105.507 262.501C110.568 261.516 115.564 260.225 120.468 258.634C119.697 256.176 119.577 253.56 120.12 251.041" stroke="black" stroke-width="0.91" stroke-linejoin="round"/>
<path d="M41.3919 270.699C49.476 267.421 57.199 263.313 64.4374 258.44" stroke="black" stroke-width="0.91" stroke-linejoin="round"/>
<path d="M60.5107 269.823C65.8716 266.478 70.8383 262.539 75.3165 258.079" stroke="black" stroke-width="0.91" stroke-linejoin="round"/>
<path d="M79.475 265.801C83.0145 263.153 86.0276 259.865 88.3585 256.107" stroke="black" stroke-width="0.91" stroke-linejoin="round"/>
<path d="M97.757 261.959C99.2089 261.216 100.396 260.042 101.157 258.598C101.917 257.153 102.214 255.509 102.006 253.89" stroke="black" stroke-width="0.91" stroke-linejoin="round"/>
<path d="M17.8185 280.148C22.8318 279.051 27.7356 277.502 32.4698 275.52" stroke="black" stroke-width="0.91" stroke-linejoin="round"/>
<path d="M27.0367 282.881C31.9121 281.502 36.5395 279.362 40.7481 276.539" stroke="black" stroke-width="0.91" stroke-linejoin="round"/>
<path d="M37.9415 283.989C41.4284 282.575 44.714 280.707 47.7133 278.433" stroke="black" stroke-width="0.91" stroke-linejoin="round"/>
<path d="M241.824 25.1365C240.781 32.2907 239.725 39.4964 237.228 46.2768C236.078 48.9135 235.214 51.6664 234.653 54.488C234.369 56.9451 234.552 59.4339 235.193 61.8226C235.871 64.9602 237.318 67.8796 239.403 70.3174C240.45 71.5244 241.733 72.5039 243.172 73.1956C244.611 73.8873 246.177 74.2765 247.772 74.3392" stroke="black" stroke-width="0.91" stroke-linejoin="round"/>
<path d="M64.6821 169.2C70.2439 164.276 78.0974 163.244 85.3973 161.839C112.254 156.683 137.14 143.793 159.619 128.221" stroke="black" stroke-width="0.91" stroke-linejoin="round"/>
<path d="M205.904 40.9141C205.024 40.4811 204.051 40.273 203.071 40.3083C200.883 40.4372 200.587 42.693 201.848 44.1754C202.374 44.7165 203.059 45.0747 203.802 45.1976C204.546 45.3206 205.31 45.2018 205.981 44.8586C206.522 44.5908 206.944 44.1314 207.165 43.5696C207.263 43.3127 207.307 43.0388 207.296 42.7643C207.285 42.4898 207.218 42.2204 207.1 41.9724C206.983 41.7243 206.816 41.5027 206.61 41.3208C206.404 41.1389 206.164 41.0006 205.904 40.9141V40.9141Z" stroke="black" stroke-width="0.91" stroke-linejoin="round"/>
<path d="M173.176 99.6044C172.303 99.1667 171.333 98.9582 170.357 98.9986C168.168 99.1275 167.859 101.383 169.134 102.866C169.657 103.406 170.34 103.763 171.081 103.886C171.823 104.009 172.584 103.891 173.254 103.549C173.798 103.282 174.224 102.823 174.451 102.26C174.55 102.002 174.595 101.727 174.584 101.452C174.573 101.176 174.506 100.905 174.386 100.657C174.267 100.408 174.098 100.186 173.89 100.005C173.682 99.8244 173.439 99.6879 173.176 99.6044V99.6044Z" stroke="black" stroke-width="0.91" stroke-linejoin="round"/>
<path d="M162.594 113.036C161.713 112.607 160.74 112.403 159.761 112.443C157.572 112.572 157.276 114.828 158.474 116.31C159 116.851 159.685 117.208 160.429 117.329C161.174 117.45 161.937 117.327 162.606 116.981C163.138 116.734 163.563 116.304 163.804 115.769C163.911 115.511 163.964 115.233 163.961 114.954C163.957 114.674 163.897 114.398 163.784 114.143C163.671 113.887 163.507 113.657 163.302 113.467C163.098 113.277 162.857 113.13 162.594 113.036V113.036Z" stroke="black" stroke-width="0.91" stroke-linejoin="round"/>
</svg>
