<svg width="410" height="297" viewBox="0 0 410 297" fill="none" xmlns="http://www.w3.org/2000/svg">
<path d="M1.5 294.44H408.5" stroke="#2D2D2D" stroke-width="0.79" stroke-linecap="round" stroke-linejoin="round"/>
<path d="M1.5 282.44H408.5" stroke="#2D2D2D" stroke-width="0.79" stroke-linecap="round" stroke-linejoin="round"/>
<path d="M1.5 270.44H408.5" stroke="#2D2D2D" stroke-width="0.79" stroke-linecap="round" stroke-linejoin="round"/>
<path d="M1.5 258.44H408.5" stroke="#2D2D2D" stroke-width="0.79" stroke-linecap="round" stroke-linejoin="round"/>
<path d="M1.5 246.44H408.5" stroke="#2D2D2D" stroke-width="0.79" stroke-linecap="round" stroke-linejoin="round"/>
<path d="M1.5 234.44H408.5" stroke="#2D2D2D" stroke-width="0.79" stroke-linecap="round" stroke-linejoin="round"/>
<path d="M1.5 222.44H408.5" stroke="#2D2D2D" stroke-width="0.79" stroke-linecap="round" stroke-linejoin="round"/>
<path d="M1.5 210.44H408.5" stroke="#2D2D2D" stroke-width="0.79" stroke-linecap="round" stroke-linejoin="round"/>
<path d="M1.5 198.44H408.5" stroke="#2D2D2D" stroke-width="0.79" stroke-linecap="round" stroke-linejoin="round"/>
<path d="M1.5 186.44H408.5" stroke="#2D2D2D" stroke-width="0.79" stroke-linecap="round" stroke-linejoin="round"/>
<path d="M1.5 174.44H408.5" stroke="#2D2D2D" stroke-width="0.79" stroke-linecap="round" stroke-linejoin="round"/>
<path d="M1.5 162.44H408.5" stroke="#2D2D2D" stroke-width="0.79" stroke-linecap="round" stroke-linejoin="round"/>
<path d="M1.5 150.44H408.5" stroke="#2D2D2D" stroke-width="0.79" stroke-linecap="round" stroke-linejoin="round"/>
<path d="M1.5 138.44H408.5" stroke="#2D2D2D" stroke-width="0.79" stroke-linecap="round" stroke-linejoin="round"/>
<path d="M1.5 126.44H408.5" stroke="#2D2D2D" stroke-width="0.79" stroke-linecap="round" stroke-linejoin="round"/>
<path d="M1.5 114.44H408.5" stroke="#2D2D2D" stroke-width="0.79" stroke-linecap="round" stroke-linejoin="round"/>
<path d="M1.5 102.44H408.5" stroke="#2D2D2D" stroke-width="0.79" stroke-linecap="round" stroke-linejoin="round"/>
<path d="M1.5 90.4399H408.5" stroke="#2D2D2D" stroke-width="0.79" stroke-linecap="round" stroke-linejoin="round"/>
<path d="M1.5 78.4399H408.5" stroke="#2D2D2D" stroke-width="0.79" stroke-linecap="round" stroke-linejoin="round"/>
<path d="M1.5 66.4399H408.5" stroke="#2D2D2D" stroke-width="0.79" stroke-linecap="round" stroke-linejoin="round"/>
<path d="M1.5 54.4399H408.5" stroke="#2D2D2D" stroke-width="0.79" stroke-linecap="round" stroke-linejoin="round"/>
<path d="M1.5 42.4399H408.5" stroke="#2D2D2D" stroke-width="0.79" stroke-linecap="round" stroke-linejoin="round"/>
<path d="M1.5 30.4399H408.5" stroke="#2D2D2D" stroke-width="0.79" stroke-linecap="round" stroke-linejoin="round"/>
<path d="M1.5 18.4399H408.5" stroke="#2D2D2D" stroke-width="0.79" stroke-linecap="round" stroke-linejoin="round"/>
<path d="M1.5 6.43994H408.5" stroke="#2D2D2D" stroke-width="0.79" stroke-linecap="round" stroke-linejoin="round"/>
<path d="M408.5 297H1.5C1.10218 297 0.720644 296.842 0.43934 296.561C0.158035 296.279 0 295.898 0 295.5C0 295.102 0.158035 294.721 0.43934 294.439C0.720644 294.158 1.10218 294 1.5 294H408.5C408.898 294 409.279 294.158 409.561 294.439C409.842 294.721 410 295.102 410 295.5C410 295.898 409.842 296.279 409.561 296.561C409.279 296.842 408.898 297 408.5 297Z" fill="#3E3E3E"/>
<path d="M85.58 258.44L54.54 234.44L23.5 258.44V294.44H85.58V258.44Z" fill="url(#paint0_linear_1_366)"/>
<path d="M43.8398 209.166V207.884H40.6796V204.701H39.3972V207.884H36.237V209.166H39.3972V212.395H40.6796V209.166H43.8398ZM48.7084 216.54H50.4717V200.51H49.2351C48.8229 201.632 48.2275 202.571 46.4871 202.64V204.105C47.3344 204.06 48.113 203.785 48.7084 203.418V216.54ZM56.7667 200.35C54.2935 200.35 53.1714 201.976 53.1714 204.426V205.731H54.8431V204.311C54.8431 202.892 55.4156 201.953 56.7209 201.953C58.0491 201.953 58.5987 202.823 58.5987 204.472C58.5987 208.983 53.1714 209.991 53.1714 215.166V216.54H60.2017V214.914H54.9347V214.662C54.9576 210.975 60.3849 209.235 60.3849 204.403C60.3849 201.953 59.2628 200.35 56.7667 200.35ZM62.0273 214.319V216.54H63.7448V214.319H62.0273ZM69.1783 200.35C66.7051 200.35 65.583 201.976 65.583 204.426V205.731H67.2547V204.311C67.2547 202.892 67.8272 201.953 69.1325 201.953C70.4607 201.953 71.0103 202.823 71.0103 204.472C71.0103 208.983 65.583 209.991 65.583 215.166V216.54H72.6133V214.914H67.3463V214.662C67.3692 210.975 72.7965 209.235 72.7965 204.403C72.7965 201.953 71.6744 200.35 69.1783 200.35Z" fill="#FDC730"/>
<path d="M160.81 210.44L129.77 186.44L98.73 210.44V294.44H160.81V210.44Z" fill="url(#paint1_linear_1_366)"/>
<path d="M118.51 161.166V159.884H115.35V156.701H114.067V159.884H110.907V161.166H114.067V164.395H115.35V161.166H118.51ZM123.699 152.35C121.226 152.35 120.104 153.976 120.104 156.426V157.731H121.775V156.311C121.775 154.892 122.348 153.953 123.653 153.953C124.981 153.953 125.531 154.823 125.531 156.472C125.531 160.983 120.104 161.991 120.104 167.166V168.54H127.134V166.914H121.867V166.662C121.89 162.975 127.317 161.235 127.317 156.403C127.317 153.953 126.195 152.35 123.699 152.35ZM132.463 152.35C130.013 152.35 128.868 153.93 128.868 156.38V157.113H130.54V156.289C130.54 154.846 131.135 153.953 132.417 153.953C133.723 153.953 134.295 154.8 134.295 156.449V157.182C134.295 158.579 133.562 159.334 132.372 159.38H131.318V160.983H132.28C133.631 161.029 134.295 161.785 134.295 163.365V164.601C134.295 166.227 133.723 167.074 132.417 167.074C131.135 167.074 130.54 166.204 130.54 164.762V163.548H128.868V164.647C128.868 167.097 130.013 168.7 132.463 168.7C134.936 168.7 136.081 167.097 136.081 164.647V163.41C136.081 161.807 135.486 160.594 134.135 160.09C135.417 159.609 136.081 158.441 136.081 156.792V156.38C136.081 153.93 134.936 152.35 132.463 152.35ZM137.815 166.319V168.54H139.533V166.319H137.815ZM143.409 154.113H148.127V152.51H141.806L141.371 161.418H143.043V161.052C143.203 159.884 143.867 159.334 144.852 159.334C146.134 159.334 146.73 160.204 146.73 161.647V164.762C146.73 166.204 146.134 167.074 144.852 167.074C143.57 167.074 142.974 166.204 142.974 164.762V163.571H141.302V164.647C141.302 167.097 142.447 168.7 144.898 168.7C147.348 168.7 148.516 167.097 148.516 164.647V161.51C148.516 159.22 147.6 157.708 145.539 157.708C144.463 157.708 143.661 158.166 143.157 159.037L143.409 154.113Z" fill="#FF819D"/>
<path d="M236.04 186.44L205.24 162.44L173.96 186.44V294.44H236.04V186.44Z" fill="url(#paint2_linear_1_366)"/>
<path d="M193.74 137.166V135.884H190.58V132.701H189.297V135.884H186.137V137.166H189.297V140.395H190.58V137.166H193.74ZM198.837 128.35C196.387 128.35 195.242 129.93 195.242 132.38V133.113H196.914V132.289C196.914 130.846 197.509 129.953 198.792 129.953C200.097 129.953 200.669 130.8 200.669 132.449V133.182C200.669 134.579 199.937 135.334 198.746 135.38H197.692V136.983H198.654C200.005 137.029 200.669 137.785 200.669 139.365V140.601C200.669 142.227 200.097 143.074 198.792 143.074C197.509 143.074 196.914 142.204 196.914 140.762V139.548H195.242V140.647C195.242 143.097 196.387 144.7 198.837 144.7C201.311 144.7 202.456 143.097 202.456 140.647V139.41C202.456 137.807 201.86 136.594 200.509 136.09C201.791 135.609 202.456 134.441 202.456 132.792V132.38C202.456 129.93 201.311 128.35 198.837 128.35ZM207.785 128.35C205.312 128.35 204.189 129.976 204.189 132.426V133.731H205.861V132.311C205.861 130.892 206.434 129.953 207.739 129.953C209.067 129.953 209.617 130.823 209.617 132.472C209.617 136.983 204.189 137.991 204.189 143.166V144.54H211.22V142.914H205.953V142.662C205.976 138.975 211.403 137.235 211.403 132.403C211.403 129.953 210.281 128.35 207.785 128.35ZM213.045 142.319V144.54H214.763V142.319H213.045ZM218.639 130.113H223.357V128.51H217.036L216.601 137.418H218.273V137.052C218.433 135.884 219.097 135.334 220.082 135.334C221.364 135.334 221.96 136.204 221.96 137.647V140.762C221.96 142.204 221.364 143.074 220.082 143.074C218.8 143.074 218.204 142.204 218.204 140.762V139.571H216.532V140.647C216.532 143.097 217.677 144.7 220.128 144.7C222.578 144.7 223.746 143.097 223.746 140.647V137.51C223.746 135.22 222.83 133.708 220.769 133.708C219.693 133.708 218.891 134.166 218.387 135.037L218.639 130.113Z" fill="#FF63DE"/>
<path d="M311.27 150.44L280.23 126.44L249.19 150.44V294.44H311.27V150.44Z" fill="url(#paint3_linear_1_366)"/>
<path d="M268.82 101.166V99.8838H265.66V96.7007H264.377V99.8838H261.217V101.166H264.377V104.395H265.66V101.166H268.82ZM278.2 105.311V103.685H276.917V92.51H274.971L270.002 103.685V105.311H275.177V108.54H276.917V105.311H278.2ZM275.177 95.8534V103.685H271.65L275.177 95.8534ZM283.086 92.3497C280.636 92.3497 279.491 93.9298 279.491 96.3801V97.1129H281.163V96.2885C281.163 94.8458 281.758 93.9527 283.041 93.9527C284.346 93.9527 284.918 94.8 284.918 96.4488V97.1816C284.918 98.5785 284.186 99.3342 282.995 99.38H281.941V100.983H282.903C284.254 101.029 284.918 101.785 284.918 103.365V104.601C284.918 106.227 284.346 107.074 283.041 107.074C281.758 107.074 281.163 106.204 281.163 104.762V103.548H279.491V104.647C279.491 107.097 280.636 108.7 283.086 108.7C285.56 108.7 286.705 107.097 286.705 104.647V103.41C286.705 101.807 286.109 100.594 284.758 100.09C286.04 99.609 286.705 98.4411 286.705 96.7923V96.3801C286.705 93.9298 285.56 92.3497 283.086 92.3497ZM288.439 106.319V108.54H290.156V106.319H288.439ZM295.498 92.3497C293.048 92.3497 291.903 93.9298 291.903 96.3801V97.1129H293.574V96.2885C293.574 94.8458 294.17 93.9527 295.452 93.9527C296.757 93.9527 297.33 94.8 297.33 96.4488V97.1816C297.33 98.5785 296.597 99.3342 295.406 99.38H294.353V100.983H295.315C296.666 101.029 297.33 101.785 297.33 103.365V104.601C297.33 106.227 296.757 107.074 295.452 107.074C294.17 107.074 293.574 106.204 293.574 104.762V103.548H291.903V104.647C291.903 107.097 293.048 108.7 295.498 108.7C297.971 108.7 299.116 107.097 299.116 104.647V103.41C299.116 101.807 298.521 100.594 297.17 100.09C298.452 99.609 299.116 98.4411 299.116 96.7923V96.3801C299.116 93.9298 297.971 92.3497 295.498 92.3497Z" fill="#8E2DE2"/>
<path d="M386.5 102.44L355.46 78.4399L324.43 102.44V294.44H386.5V102.44Z" fill="url(#paint4_linear_1_366)"/>
<path d="M344.2 53.1662V51.8838H341.04V48.7007H339.757V51.8838H336.597V53.1662H339.757V56.3951H341.04V53.1662H344.2ZM347.832 46.113H352.549V44.51H346.229L345.794 53.4181H347.465V53.0517C347.626 51.8838 348.29 51.3342 349.275 51.3342C350.557 51.3342 351.152 52.2044 351.152 53.6471V56.7615C351.152 58.2042 350.557 59.0744 349.275 59.0744C347.992 59.0744 347.397 58.2042 347.397 56.7615V55.5707H345.725V56.647C345.725 59.0973 346.87 60.7003 349.32 60.7003C351.771 60.7003 352.939 59.0973 352.939 56.647V53.5097C352.939 51.2197 352.023 49.7083 349.962 49.7083C348.885 49.7083 348.084 50.1663 347.58 51.0365L347.832 46.113ZM356.688 46.113H361.405V44.51H355.085L354.65 53.4181H356.321V53.0517C356.482 51.8838 357.146 51.3342 358.13 51.3342C359.413 51.3342 360.008 52.2044 360.008 53.6471V56.7615C360.008 58.2042 359.413 59.0744 358.13 59.0744C356.848 59.0744 356.253 58.2042 356.253 56.7615V55.5707H354.581V56.647C354.581 59.0973 355.726 60.7003 358.176 60.7003C360.626 60.7003 361.794 59.0973 361.794 56.647V53.5097C361.794 51.2197 360.878 49.7083 358.817 49.7083C357.741 49.7083 356.94 50.1663 356.436 51.0365L356.688 46.113ZM363.505 58.3187V60.54H365.223V58.3187H363.505ZM369.099 46.113H373.817V44.51H367.496L367.061 53.4181H368.733V53.0517C368.893 51.8838 369.557 51.3342 370.542 51.3342C371.824 51.3342 372.42 52.2044 372.42 53.6471V56.7615C372.42 58.2042 371.824 59.0744 370.542 59.0744C369.26 59.0744 368.664 58.2042 368.664 56.7615V55.5707H366.992V56.647C366.992 59.0973 368.137 60.7003 370.588 60.7003C373.038 60.7003 374.206 59.0973 374.206 56.647V53.5097C374.206 51.2197 373.29 49.7083 371.229 49.7083C370.153 49.7083 369.351 50.1663 368.847 51.0365L369.099 46.113Z" fill="#9C27B0"/>
<path d="M24.54 179.12C24.54 179.12 58.54 143.12 129.77 131.12C181.77 122.36 232.38 104.7 284.53 55.79C310.9 31.06 334.83 14.68 355.47 6.15002" stroke="#BDBDBD" stroke-width="2" stroke-linecap="round" stroke-linejoin="round"/>
<path d="M54.61 162.63C57.6476 162.63 60.11 160.168 60.11 157.13C60.11 154.092 57.6476 151.63 54.61 151.63C51.5724 151.63 49.11 154.092 49.11 157.13C49.11 160.168 51.5724 162.63 54.61 162.63Z" fill="url(#paint5_linear_1_366)"/>
<path d="M129.77 136.63C132.808 136.63 135.27 134.168 135.27 131.13C135.27 128.092 132.808 125.63 129.77 125.63C126.732 125.63 124.27 128.092 124.27 131.13C124.27 134.168 126.732 136.63 129.77 136.63Z" fill="url(#paint6_linear_1_366)"/>
<path d="M205 114.88C208.038 114.88 210.5 112.418 210.5 109.38C210.5 106.342 208.038 103.88 205 103.88C201.962 103.88 199.5 106.342 199.5 109.38C199.5 112.418 201.962 114.88 205 114.88Z" fill="url(#paint7_linear_1_366)"/>
<path d="M280.23 64.63C283.268 64.63 285.73 62.1676 285.73 59.13C285.73 56.0924 283.268 53.63 280.23 53.63C277.192 53.63 274.73 56.0924 274.73 59.13C274.73 62.1676 277.192 64.63 280.23 64.63Z" fill="url(#paint8_linear_1_366)"/>
<path d="M355.48 11C358.518 11 360.98 8.53757 360.98 5.5C360.98 2.46243 358.518 0 355.48 0C352.442 0 349.98 2.46243 349.98 5.5C349.98 8.53757 352.442 11 355.48 11Z" fill="url(#paint9_linear_1_366)"/>
<defs>
<linearGradient id="paint0_linear_1_366" x1="41.77" y1="243.27" x2="68.76" y2="313.38" gradientUnits="userSpaceOnUse">
<stop stop-color="#FDC830"/>
<stop offset="1" stop-color="#F37335"/>
</linearGradient>
<linearGradient id="paint1_linear_1_366" x1="109.62" y1="199.57" x2="151.69" y2="309.96" gradientUnits="userSpaceOnUse">
<stop stop-color="#FF839D"/>
<stop offset="1" stop-color="#F50B9A"/>
</linearGradient>
<linearGradient id="paint2_linear_1_366" x1="190.25" y1="191.33" x2="225.3" y2="308" gradientUnits="userSpaceOnUse">
<stop stop-color="#FF63DE"/>
<stop offset="1" stop-color="#B122E5"/>
</linearGradient>
<linearGradient id="paint3_linear_1_366" x1="253.74" y1="146.49" x2="313.25" y2="317.09" gradientUnits="userSpaceOnUse">
<stop stop-color="#8E2DE2"/>
<stop offset="1" stop-color="#4A00E0"/>
</linearGradient>
<linearGradient id="paint4_linear_1_366" x1="335.69" y1="123.09" x2="385.82" y2="314.13" gradientUnits="userSpaceOnUse">
<stop stop-color="#9C27B0"/>
<stop offset="1" stop-color="#4A148C"/>
</linearGradient>
<linearGradient id="paint5_linear_1_366" x1="52.18" y1="150.98" x2="57.93" y2="165.48" gradientUnits="userSpaceOnUse">
<stop stop-color="#FDC830"/>
<stop offset="1" stop-color="#F37335"/>
</linearGradient>
<linearGradient id="paint6_linear_1_366" x1="126" y1="123.24" x2="134" y2="139.99" gradientUnits="userSpaceOnUse">
<stop stop-color="#FF839D"/>
<stop offset="1" stop-color="#F50B9A"/>
</linearGradient>
<linearGradient id="paint7_linear_1_366" x1="201.49" y1="103.31" x2="209.74" y2="117.56" gradientUnits="userSpaceOnUse">
<stop stop-color="#FF63DE"/>
<stop offset="1" stop-color="#B122E5"/>
</linearGradient>
<linearGradient id="paint8_linear_1_366" x1="276.35" y1="51.51" x2="283.35" y2="65.26" gradientUnits="userSpaceOnUse">
<stop stop-color="#8E2DE2"/>
<stop offset="1" stop-color="#4A00E0"/>
</linearGradient>
<linearGradient id="paint9_linear_1_366" x1="352.38" y1="-2.45" x2="360.17" y2="17.53" gradientUnits="userSpaceOnUse">
<stop stop-color="#9C27B0"/>
<stop offset="1" stop-color="#4A148C"/>
</linearGradient>
</defs>
</svg>
