<svg width="200" height="200" viewBox="0 0 200 200" fill="none" xmlns="http://www.w3.org/2000/svg">
<g filter="url(#filter0_d_1_317)">
<rect x="44" y="40" width="112" height="112" rx="20" fill="url(#paint0_linear_1_317)"/>
</g>
<path d="M94.9028 81.574C96.8362 76.7893 97.803 74.397 99.3736 74.0654C99.7866 73.9782 100.213 73.9782 100.626 74.0654C102.197 74.397 103.164 76.7893 105.097 81.574C106.197 84.295 106.747 85.6555 107.775 86.5809C108.064 86.8404 108.377 87.0716 108.71 87.2711C109.899 87.9824 111.384 88.1144 114.352 88.3783C119.377 88.825 121.89 89.0484 122.657 90.4705C122.816 90.765 122.924 91.0839 122.977 91.4139C123.231 93.0072 121.384 94.6753 117.69 98.0116L116.664 98.938C114.937 100.498 114.073 101.278 113.574 102.251C113.274 102.835 113.073 103.464 112.979 104.112C112.822 105.193 113.075 106.325 113.581 108.587L113.762 109.396C114.669 113.454 115.122 115.483 114.556 116.48C114.047 117.376 113.111 117.949 112.076 117.998C110.924 118.053 109.301 116.74 106.055 114.114C103.916 112.385 102.847 111.52 101.66 111.182C100.575 110.873 99.4248 110.873 98.34 111.182C97.1529 111.52 96.0836 112.385 93.9449 114.114C90.6988 116.74 89.0758 118.053 87.9239 117.998C86.8892 117.949 85.9525 117.376 85.444 116.48C84.8779 115.483 85.3314 113.454 86.2384 109.396L86.4191 108.587C86.9249 106.325 87.1778 105.193 87.0208 104.112C86.9267 103.464 86.7258 102.835 86.4262 102.251C85.9267 101.278 85.0631 100.498 83.336 98.938L82.3101 98.0116C78.6159 94.6753 76.7688 93.0072 77.0231 91.4139C77.0758 91.0839 77.1839 90.765 77.3428 90.4705C78.1101 89.0484 80.6226 88.825 85.6478 88.3783C88.6163 88.1144 90.1005 87.9824 91.2895 87.2711C91.623 87.0716 91.9362 86.8404 92.2248 86.5809C93.2535 85.6555 93.8032 84.295 94.9028 81.574Z" fill="white"/>
<defs>
<filter id="filter0_d_1_317" x="0" y="0" width="200" height="200" filterUnits="userSpaceOnUse" color-interpolation-filters="sRGB">
<feFlood flood-opacity="0" result="BackgroundImageFix"/>
<feColorMatrix in="SourceAlpha" type="matrix" values="0 0 0 0 0 0 0 0 0 0 0 0 0 0 0 0 0 0 127 0" result="hardAlpha"/>
<feOffset dy="4"/>
<feGaussianBlur stdDeviation="22"/>
<feComposite in2="hardAlpha" operator="out"/>
<feColorMatrix type="matrix" values="0 0 0 0 0 0 0 0 0 0 0 0 0 0 0 0 0 0 0.25 0"/>
<feBlend mode="normal" in2="BackgroundImageFix" result="effect1_dropShadow_1_317"/>
<feBlend mode="normal" in="SourceGraphic" in2="effect1_dropShadow_1_317" result="shape"/>
</filter>
<linearGradient id="paint0_linear_1_317" x1="100" y1="40" x2="100" y2="152" gradientUnits="userSpaceOnUse">
<stop stop-color="#F8D959"/>
<stop offset="1" stop-color="#141414"/>
</linearGradient>
</defs>
</svg>
