<svg width="171" height="171" viewBox="0 0 171 171" fill="none" xmlns="http://www.w3.org/2000/svg">
<g filter="url(#filter0_d_1_117)">
<rect x="44" y="40" width="83" height="83" rx="20" fill="url(#paint0_linear_1_117)"/>
</g>
<path fill-rule="evenodd" clip-rule="evenodd" d="M103 78.6147C103 72.7502 103 69.8179 101.567 67.7115C100.947 66.7997 100.15 66.0167 99.2223 65.4074C97.0784 64 94.094 64 88.125 64H83.875C77.906 64 74.9216 64 72.7777 65.4074C71.8495 66.0167 71.0527 66.7997 70.4325 67.7115C69 69.8179 69 72.7502 69 78.6147C69 84.4792 69 87.4115 70.4325 89.5179C71.0527 90.4297 71.8495 91.2127 72.7777 91.822C74.6505 93.0515 77.1649 93.2069 81.75 93.2266V93.2294L84.0993 97.8459C84.8825 99.3847 87.1175 99.3847 87.9007 97.8459L90.25 93.2294V93.2266C94.8351 93.2069 97.3495 93.0515 99.2223 91.822C100.15 91.2127 100.947 90.4297 101.567 89.5179C103 87.4115 103 84.4792 103 78.6147ZM79.625 72.3513C78.4514 72.3513 77.5 73.286 77.5 74.4391C77.5 75.5921 78.4514 76.5269 79.625 76.5269H92.375C93.5486 76.5269 94.5 75.5921 94.5 74.4391C94.5 73.286 93.5486 72.3513 92.375 72.3513H79.625ZM79.625 80.7025C78.4514 80.7025 77.5 81.6373 77.5 82.7903C77.5 83.9434 78.4514 84.8782 79.625 84.8782H86C87.1736 84.8782 88.125 83.9434 88.125 82.7903C88.125 81.6373 87.1736 80.7025 86 80.7025H79.625Z" fill="white"/>
<defs>
<filter id="filter0_d_1_117" x="0" y="0" width="171" height="171" filterUnits="userSpaceOnUse" color-interpolation-filters="sRGB">
<feFlood flood-opacity="0" result="BackgroundImageFix"/>
<feColorMatrix in="SourceAlpha" type="matrix" values="0 0 0 0 0 0 0 0 0 0 0 0 0 0 0 0 0 0 127 0" result="hardAlpha"/>
<feOffset dy="4"/>
<feGaussianBlur stdDeviation="22"/>
<feComposite in2="hardAlpha" operator="out"/>
<feColorMatrix type="matrix" values="0 0 0 0 0 0 0 0 0 0 0 0 0 0 0 0 0 0 0.25 0"/>
<feBlend mode="normal" in2="BackgroundImageFix" result="effect1_dropShadow_1_117"/>
<feBlend mode="normal" in="SourceGraphic" in2="effect1_dropShadow_1_117" result="shape"/>
</filter>
<linearGradient id="paint0_linear_1_117" x1="85.5" y1="40" x2="85.5" y2="123" gradientUnits="userSpaceOnUse">
<stop stop-color="#2CB67D"/>
<stop offset="1" stop-color="#161516"/>
</linearGradient>
</defs>
</svg>
