<svg width="262" height="26" viewBox="0 0 262 26" fill="none" xmlns="http://www.w3.org/2000/svg">
<path d="M19.4232 3.00985L13.6143 0C7.89362 2.05907 0 11.4571 0 11.4571L5.43411 14.4951C13.0443 4.99015 19.4232 3.00985 19.4232 3.00985Z" fill="white"/>
<path d="M38.9591 3.61724L32.952 0.171387C32.952 0.171387 30.0353 3.22061 22.483 6.82399C14.9307 10.4274 9.91113 16.9225 9.91113 16.9225L15.2385 19.9323C15.2385 19.9323 17.5975 16.4077 26.3932 11.9323C35.189 7.4569 38.9591 3.61724 38.9591 3.61724Z" fill="white"/>
<path d="M35.1405 13.0826C25.2292 17.6397 20.5114 22.6777 20.5114 22.6777L26.043 25.634C29.0053 22.6635 35.9633 19.1783 42.0588 16.5651C48.1542 13.9519 54.1583 7.70997 54.1583 7.70997C58.678 10.2163 64.2158 7.7606 64.2158 7.7606L51.6592 0.804199C48.011 5.12206 45.0517 8.52571 35.1405 13.0826Z" fill="white"/>
<path d="M72 6.88022H79.3146V25.6379H87.8421V6.88022H95.1935V0.253481H72V6.88022Z" fill="white"/>
<path d="M95.9048 12.9276C95.9048 20.4958 101.859 26 110.056 26C118.253 26 124.207 20.4596 124.207 12.9276C124.207 5.43175 118.253 0 110.056 0C101.859 0 95.9048 5.39554 95.9048 12.9276ZM104.653 12.9638C104.653 9.48746 107.189 6.98886 110.166 6.98886C113.107 6.98886 115.459 9.48746 115.459 12.9638C115.459 16.4401 113.107 19.0111 110.166 19.0111C107.226 19.0111 104.653 16.4401 104.653 12.9638Z" fill="white"/>
<path d="M126.406 12.9638C126.406 20.4958 132.287 26 140.373 26C144.049 26 148.791 24.624 151.658 22.7409V12.2758H144.343V18.1783C143.093 18.6852 141.843 19.0111 140.961 19.0111C137.616 19.0111 135.154 16.4763 135.154 12.9638C135.154 9.52368 137.58 6.98886 140.888 6.98886C143.02 6.98886 145.519 8.039 147.247 9.66852L152.062 3.91086C149.305 1.52089 144.931 0 140.925 0C132.507 0 126.406 5.46797 126.406 12.9638Z" fill="white"/>
<path d="M154.645 12.9276C154.645 20.4958 160.6 26 168.796 26C176.993 26 182.948 20.4596 182.948 12.9276C182.948 5.43175 176.993 0 168.796 0C160.6 0 154.645 5.39554 154.645 12.9276ZM163.393 12.9638C163.393 9.48746 165.929 6.98886 168.907 6.98886C171.847 6.98886 174.2 9.48746 174.2 12.9638C174.2 16.4401 171.847 19.0111 168.907 19.0111C165.966 19.0111 163.393 16.4401 163.393 12.9638Z" fill="white"/>
<path d="M183.666 6.88022H190.98V25.6379H199.508V6.88022H206.859V0.253481H183.666V6.88022Z" fill="white"/>
<path d="M207.57 12.9276C207.57 20.4958 213.525 26 221.722 26C229.919 26 235.873 20.4596 235.873 12.9276C235.873 5.43175 229.919 0 221.722 0C213.525 0 207.57 5.39554 207.57 12.9276ZM216.319 12.9638C216.319 9.48746 218.855 6.98886 221.832 6.98886C224.773 6.98886 227.125 9.48746 227.125 12.9638C227.125 16.4401 224.773 19.0111 221.832 19.0111C218.892 19.0111 216.319 16.4401 216.319 12.9638Z" fill="white"/>
<path d="M239.358 25.6379H247.885V19.0474H251.451C258.141 19.0474 262 15.4986 262 9.34262C262 3.54875 258.141 0.253481 251.451 0.253481H239.358V25.6379ZM247.885 12.6741V6.62674H251.01C252.848 6.62674 253.914 7.71309 253.914 9.5961C253.914 11.5515 252.848 12.6741 251.01 12.6741H247.885Z" fill="white"/>
</svg>
