<svg width="18" height="18" viewBox="0 0 18 18" fill="none" xmlns="http://www.w3.org/2000/svg">
<path d="M7.30729 4.21986C7.94937 2.61918 8.2704 1.81883 8.79198 1.70791C8.92913 1.67874 9.07087 1.67874 9.20802 1.70791C9.72959 1.81883 10.0506 2.61918 10.6927 4.21986C11.0578 5.13014 11.2404 5.58528 11.582 5.89485C11.6778 5.98168 11.7819 6.05901 11.8926 6.12576C12.2874 6.36374 12.7803 6.40788 13.7661 6.49617C15.4349 6.64562 16.2693 6.72034 16.5241 7.19609C16.5768 7.29462 16.6127 7.4013 16.6302 7.51169C16.7147 8.04472 16.1013 8.60278 14.8745 9.7189L14.5338 10.0288C13.9603 10.5506 13.6735 10.8115 13.5076 11.1372C13.4081 11.3325 13.3414 11.5428 13.3102 11.7598C13.258 12.1215 13.342 12.5 13.51 13.2569L13.57 13.5274C13.8712 14.8849 14.0218 15.5637 13.8338 15.8973C13.6649 16.197 13.3539 16.3889 13.0103 16.4053C12.6277 16.4236 12.0888 15.9844 11.0108 15.106C10.3006 14.5273 9.94547 14.2379 9.55126 14.1249C9.19101 14.0216 8.80899 14.0216 8.44874 14.1249C8.05453 14.2379 7.69942 14.5273 6.98921 15.106C5.91124 15.9844 5.37225 16.4236 4.98973 16.4053C4.64613 16.3889 4.33509 16.197 4.16622 15.8973C3.97823 15.5637 4.12882 14.8849 4.43002 13.5274L4.49003 13.2569C4.65798 12.5 4.74196 12.1215 4.68984 11.7598C4.65858 11.5428 4.59187 11.3325 4.49237 11.1372C4.32649 10.8115 4.03972 10.5506 3.46618 10.0288L3.1255 9.7189C1.89871 8.60278 1.28532 8.04472 1.36979 7.51169C1.38729 7.4013 1.42317 7.29462 1.47594 7.19608C1.73074 6.72034 2.56512 6.64562 4.23388 6.49617C5.21967 6.40788 5.71256 6.36374 6.1074 6.12576C6.21815 6.05901 6.32216 5.98168 6.41798 5.89485C6.75959 5.58528 6.94216 5.13014 7.30729 4.21986Z" fill="#F8D959" stroke="#F8D959" stroke-width="2"/>
</svg>
